<?xml version="1.0" standalone="no"?>
<!DOCTYPE svg PUBLIC "-//W3C//DTD SVG 20010904//EN"
 "http://www.w3.org/TR/2001/REC-SVG-20010904/DTD/svg10.dtd">
<svg version="1.0" xmlns="http://www.w3.org/2000/svg"
 width="1000.000000pt" height="1000.000000pt" viewBox="0 0 1000.000000 1000.000000"
 preserveAspectRatio="xMidYMid meet">
<metadata>
Created by potrace 1.11, written by Peter Selinger 2001-2013
</metadata>
<g transform="translate(0.000000,1000.000000) scale(0.100000,-0.100000)"
fill="#000000" stroke="none">
<path d="M190 9978 c-71 -28 -142 -99 -169 -173 l-21 -56 2 -4767 3 -4767 29
-53 c33 -60 76 -101 139 -134 l42 -23 4785 0 4785 0 54 30 c64 35 123 105 145
173 15 43 16 476 14 4812 l-3 4765 -30 54 c-30 54 -82 103 -145 137 -34 18
-163 19 -4805 21 l-4770 2 -55 -21z"/>
</g>
</svg>
