<?xml version="1.0" encoding="UTF-8"?>
<svg  viewBox="0 0 1440 1201" version="1.1" xmlns="http://www.w3.org/2000/svg" xmlns:xlink="http://www.w3.org/1999/xlink">
    <!-- Generator: Sketch 54.1 (76490) - https://sketchapp.com -->
    <title>Group 2</title>
    <desc>Created with Sketch.</desc>
    <defs>
        <linearGradient x1="-2.23184104%" y1="29.8118251%" x2="78.4706416%" y2="76.6174853%" id="linearGradient-1">
            <stop stop-color="#00FFBF" offset="0%"></stop>
            <stop stop-color="#5A33E9" stop-opacity="0.4" offset="47.2043048%"></stop>
            <stop stop-color="#00F6C6" offset="100%"></stop>
        </linearGradient>
        <linearGradient x1="-2.23184104%" y1="30.1865036%" x2="78.4706416%" y2="76.6174853%" id="linearGradient-2">
            <stop stop-color="#00FFBF" offset="0%"></stop>
            <stop stop-color="#5A33E9" stop-opacity="0.4" offset="48.0020934%"></stop>
            <stop stop-color="#00F6C6" offset="100%"></stop>
        </linearGradient>
    </defs>
    <g id="SALT-Landing-Page" stroke="none" stroke-width="1" fill="none" fill-rule="evenodd">
        <g id="Artboard-Copy" fill-rule="nonzero">
            <g id="Group-2" transform="translate(-134.000000, -61.766092)">
                <g id="Group" transform="translate(120.000000, 0.000000)">
                    <path d="M1315.10073,577.983615 L1364.32978,948.478527 L1844.22583,1198.60914 L1844.68804,1197.72237 L1365.25264,947.831858 L1316.00204,577.174726 L421.356033,358.167876 L80.3306599,180.662706 L57.095661,1.13686838e-13 L56.10383,0.127559205 L79.4054788,181.308498 L420.947771,359.082727 L421.059735,359.12487 L1315.10073,577.983615 Z M421.356033,358.167876 L421.297511,358.15355 L421.409476,358.195693 L421.356033,358.167876 Z" id="Path-5" fill="url(#linearGradient-1)"></path>
                    <path d="M1310.9969,581.749707 L1360.22595,952.244619 L1840.122,1202.37523 L1840.58421,1201.48846 L1361.14881,951.59795 L1311.89821,580.940819 L417.252203,361.933968 L76.2268298,184.428798 L52.991831,3.76609244 L52,3.89365164 L75.3016487,185.074591 L416.843941,362.848819 L416.955905,362.890962 L1310.9969,581.749707 Z M417.252203,361.933968 L417.193681,361.919642 L417.305646,361.961786 L417.252203,361.933968 Z" id="Path-5-Copy" fill="url(#linearGradient-2)"></path>
                    <path d="M1306.9969,585.749707 L1356.22595,956.244619 L1836.122,1206.37523 L1836.58421,1205.48846 L1357.14881,955.59795 L1307.89821,584.940819 L413.252203,365.933968 L72.2268298,188.428798 L48.991831,7.76609244 L48,7.89365164 L71.3016487,189.074591 L412.843941,366.848819 L412.955905,366.890962 L1306.9969,585.749707 Z M413.252203,365.933968 L413.193681,365.919642 L413.305646,365.961786 L413.252203,365.933968 Z" id="Path-5-Copy-2" fill="url(#linearGradient-1)"></path>
                    <path d="M1302.9969,589.749707 L1352.22595,960.244619 L1832.122,1210.37523 L1832.58421,1209.48846 L1353.14881,959.59795 L1303.89821,588.940819 L409.252203,369.933968 L68.2268298,192.428798 L44.991831,11.7660924 L44,11.8936516 L67.3016487,193.074591 L408.843941,370.848819 L408.955905,370.890962 L1302.9969,589.749707 Z M409.252203,369.933968 L409.193681,369.919642 L409.305646,369.961786 L409.252203,369.933968 Z" id="Path-5-Copy-4" fill="url(#linearGradient-1)"></path>
                    <path d="M1298.9969,593.749707 L1348.22595,964.244619 L1828.122,1214.37523 L1828.58421,1213.48846 L1349.14881,963.59795 L1299.89821,592.940819 L405.252203,373.933968 L64.2268298,196.428798 L40.991831,15.7660924 L40,15.8936516 L63.3016487,197.074591 L404.843941,374.848819 L404.955905,374.890962 L1298.9969,593.749707 Z M405.252203,373.933968 L405.193681,373.919642 L405.305646,373.961786 L405.252203,373.933968 Z" id="Path-5-Copy-5" fill="url(#linearGradient-1)"></path>
                    <path d="M1294.9969,597.749707 L1344.22595,968.244619 L1824.122,1218.37523 L1824.58421,1217.48846 L1345.14881,967.59795 L1295.89821,596.940819 L401.252203,377.933968 L60.2268298,200.428798 L36.991831,19.7660924 L36,19.8936516 L59.3016487,201.074591 L400.843941,378.848819 L400.955905,378.890962 L1294.9969,597.749707 Z M401.252203,377.933968 L401.193681,377.919642 L401.305646,377.961786 L401.252203,377.933968 Z" id="Path-5-Copy-6" fill="url(#linearGradient-1)"></path>
                    <path d="M1290.9969,601.749707 L1340.22595,972.244619 L1820.122,1222.37523 L1820.58421,1221.48846 L1341.14881,971.59795 L1291.89821,600.940819 L397.252203,381.933968 L56.2268298,204.428798 L32.991831,23.7660924 L32,23.8936516 L55.3016487,205.074591 L396.843941,382.848819 L396.955905,382.890962 L1290.9969,601.749707 Z M397.252203,381.933968 L397.193681,381.919642 L397.305646,381.961786 L397.252203,381.933968 Z" id="Path-5-Copy-7" fill="url(#linearGradient-1)"></path>
                    <path d="M1286.9969,605.749707 L1336.22595,976.244619 L1816.122,1226.37523 L1816.58421,1225.48846 L1337.14881,975.59795 L1287.89821,604.940819 L393.252203,385.933968 L52.2268298,208.428798 L28.991831,27.7660924 L28,27.8936516 L51.3016487,209.074591 L392.843941,386.848819 L392.955905,386.890962 L1286.9969,605.749707 Z M393.252203,385.933968 L393.193681,385.919642 L393.305646,385.961786 L393.252203,385.933968 Z" id="Path-5-Copy-8" fill="url(#linearGradient-1)"></path>
                    <path d="M1282.9969,609.749707 L1332.22595,980.244619 L1812.122,1230.37523 L1812.58421,1229.48846 L1333.14881,979.59795 L1283.89821,608.940819 L389.252203,389.933968 L48.2268298,212.428798 L24.991831,31.7660924 L24,31.8936516 L47.3016487,213.074591 L388.843941,390.848819 L388.955905,390.890962 L1282.9969,609.749707 Z M389.252203,389.933968 L389.193681,389.919642 L389.305646,389.961786 L389.252203,389.933968 Z" id="Path-5-Copy-9" fill="url(#linearGradient-1)"></path>
                    <path d="M1278.9969,613.749707 L1328.22595,984.244619 L1808.122,1234.37523 L1808.58421,1233.48846 L1329.14881,983.59795 L1279.89821,612.940819 L385.252203,393.933968 L44.2268298,216.428798 L20.991831,35.7660924 L20,35.8936516 L43.3016487,217.074591 L384.843941,394.848819 L384.955905,394.890962 L1278.9969,613.749707 Z M385.252203,393.933968 L385.193681,393.919642 L385.305646,393.961786 L385.252203,393.933968 Z" id="Path-5-Copy-10" fill="url(#linearGradient-1)"></path>
                    <path d="M1274.9969,617.749707 L1324.22595,988.244619 L1804.122,1238.37523 L1804.58421,1237.48846 L1325.14881,987.59795 L1275.89821,616.940819 L381.252203,397.933968 L40.2268298,220.428798 L16.991831,39.7660924 L16,39.8936516 L39.3016487,221.074591 L380.843941,398.848819 L380.955905,398.890962 L1274.9969,617.749707 Z M381.252203,397.933968 L381.193681,397.919642 L381.305646,397.961786 L381.252203,397.933968 Z" id="Path-5-Copy-11" fill="url(#linearGradient-1)"></path>
                    <path d="M1270.9969,621.749707 L1320.22595,992.244619 L1800.122,1242.37523 L1800.58421,1241.48846 L1321.14881,991.59795 L1271.89821,620.940819 L377.252203,401.933968 L36.2268298,224.428798 L12.991831,43.7660924 L12,43.8936516 L35.3016487,225.074591 L376.843941,402.848819 L376.955905,402.890962 L1270.9969,621.749707 Z M377.252203,401.933968 L377.193681,401.919642 L377.305646,401.961786 L377.252203,401.933968 Z" id="Path-5-Copy-12" fill="url(#linearGradient-1)"></path>
                    <path d="M1266.9969,625.749707 L1316.22595,996.244619 L1796.122,1246.37523 L1796.58421,1245.48846 L1317.14881,995.59795 L1267.89821,624.940819 L373.252203,405.933968 L32.2268298,228.428798 L8.99183096,47.7660924 L8,47.8936516 L31.3016487,229.074591 L372.843941,406.848819 L372.955905,406.890962 L1266.9969,625.749707 Z M373.252203,405.933968 L373.193681,405.919642 L373.305646,405.961786 L373.252203,405.933968 Z" id="Path-5-Copy-13" fill="url(#linearGradient-1)"></path>
                    <path d="M1262.9969,629.749707 L1312.22595,1000.24462 L1792.122,1250.37523 L1792.58421,1249.48846 L1313.14881,999.59795 L1263.89821,628.940819 L369.252203,409.933968 L28.2268298,232.428798 L4.99183096,51.7660924 L4,51.8936516 L27.3016487,233.074591 L368.843941,410.848819 L368.955905,410.890962 L1262.9969,629.749707 Z M369.252203,409.933968 L369.193681,409.919642 L369.305646,409.961786 L369.252203,409.933968 Z" id="Path-5-Copy-14" fill="url(#linearGradient-1)"></path>
                    <path d="M1258.9969,633.749707 L1308.22595,1004.24462 L1788.122,1254.37523 L1788.58421,1253.48846 L1309.14881,1003.59795 L1259.89821,632.940819 L365.252203,413.933968 L24.2268298,236.428798 L0.991830958,55.7660924 L0,55.8936516 L23.3016487,237.074591 L364.843941,414.848819 L364.955905,414.890962 L1258.9969,633.749707 Z M365.252203,413.933968 L365.193681,413.919642 L365.305646,413.961786 L365.252203,413.933968 Z" id="Path-5-Copy-15" fill="url(#linearGradient-1)"></path>
                </g>
                <g id="Group-Copy" transform="translate(60.000000, 59.766092)">
                    <path d="M1315.10073,577.983615 L1364.32978,948.478527 L1844.22583,1198.60914 L1844.68804,1197.72237 L1365.25264,947.831858 L1316.00204,577.174726 L421.356033,358.167876 L80.3306599,180.662706 L57.095661,1.13686838e-13 L56.10383,0.127559205 L79.4054788,181.308498 L420.947771,359.082727 L421.059735,359.12487 L1315.10073,577.983615 Z M421.356033,358.167876 L421.297511,358.15355 L421.409476,358.195693 L421.356033,358.167876 Z" id="Path-5" fill="url(#linearGradient-1)"></path>
                    <path d="M1310.9969,581.749707 L1360.22595,952.244619 L1840.122,1202.37523 L1840.58421,1201.48846 L1361.14881,951.59795 L1311.89821,580.940819 L417.252203,361.933968 L76.2268298,184.428798 L52.991831,3.76609244 L52,3.89365164 L75.3016487,185.074591 L416.843941,362.848819 L416.955905,362.890962 L1310.9969,581.749707 Z M417.252203,361.933968 L417.193681,361.919642 L417.305646,361.961786 L417.252203,361.933968 Z" id="Path-5-Copy" fill="url(#linearGradient-2)"></path>
                    <path d="M1306.9969,585.749707 L1356.22595,956.244619 L1836.122,1206.37523 L1836.58421,1205.48846 L1357.14881,955.59795 L1307.89821,584.940819 L413.252203,365.933968 L72.2268298,188.428798 L48.991831,7.76609244 L48,7.89365164 L71.3016487,189.074591 L412.843941,366.848819 L412.955905,366.890962 L1306.9969,585.749707 Z M413.252203,365.933968 L413.193681,365.919642 L413.305646,365.961786 L413.252203,365.933968 Z" id="Path-5-Copy-2" fill="url(#linearGradient-1)"></path>
                    <path d="M1302.9969,589.749707 L1352.22595,960.244619 L1832.122,1210.37523 L1832.58421,1209.48846 L1353.14881,959.59795 L1303.89821,588.940819 L409.252203,369.933968 L68.2268298,192.428798 L44.991831,11.7660924 L44,11.8936516 L67.3016487,193.074591 L408.843941,370.848819 L408.955905,370.890962 L1302.9969,589.749707 Z M409.252203,369.933968 L409.193681,369.919642 L409.305646,369.961786 L409.252203,369.933968 Z" id="Path-5-Copy-4" fill="url(#linearGradient-1)"></path>
                    <path d="M1298.9969,593.749707 L1348.22595,964.244619 L1828.122,1214.37523 L1828.58421,1213.48846 L1349.14881,963.59795 L1299.89821,592.940819 L405.252203,373.933968 L64.2268298,196.428798 L40.991831,15.7660924 L40,15.8936516 L63.3016487,197.074591 L404.843941,374.848819 L404.955905,374.890962 L1298.9969,593.749707 Z M405.252203,373.933968 L405.193681,373.919642 L405.305646,373.961786 L405.252203,373.933968 Z" id="Path-5-Copy-5" fill="url(#linearGradient-1)"></path>
                    <path d="M1294.9969,597.749707 L1344.22595,968.244619 L1824.122,1218.37523 L1824.58421,1217.48846 L1345.14881,967.59795 L1295.89821,596.940819 L401.252203,377.933968 L60.2268298,200.428798 L36.991831,19.7660924 L36,19.8936516 L59.3016487,201.074591 L400.843941,378.848819 L400.955905,378.890962 L1294.9969,597.749707 Z M401.252203,377.933968 L401.193681,377.919642 L401.305646,377.961786 L401.252203,377.933968 Z" id="Path-5-Copy-6" fill="url(#linearGradient-1)"></path>
                    <path d="M1290.9969,601.749707 L1340.22595,972.244619 L1820.122,1222.37523 L1820.58421,1221.48846 L1341.14881,971.59795 L1291.89821,600.940819 L397.252203,381.933968 L56.2268298,204.428798 L32.991831,23.7660924 L32,23.8936516 L55.3016487,205.074591 L396.843941,382.848819 L396.955905,382.890962 L1290.9969,601.749707 Z M397.252203,381.933968 L397.193681,381.919642 L397.305646,381.961786 L397.252203,381.933968 Z" id="Path-5-Copy-7" fill="url(#linearGradient-1)"></path>
                    <path d="M1286.9969,605.749707 L1336.22595,976.244619 L1816.122,1226.37523 L1816.58421,1225.48846 L1337.14881,975.59795 L1287.89821,604.940819 L393.252203,385.933968 L52.2268298,208.428798 L28.991831,27.7660924 L28,27.8936516 L51.3016487,209.074591 L392.843941,386.848819 L392.955905,386.890962 L1286.9969,605.749707 Z M393.252203,385.933968 L393.193681,385.919642 L393.305646,385.961786 L393.252203,385.933968 Z" id="Path-5-Copy-8" fill="url(#linearGradient-1)"></path>
                    <path d="M1282.9969,609.749707 L1332.22595,980.244619 L1812.122,1230.37523 L1812.58421,1229.48846 L1333.14881,979.59795 L1283.89821,608.940819 L389.252203,389.933968 L48.2268298,212.428798 L24.991831,31.7660924 L24,31.8936516 L47.3016487,213.074591 L388.843941,390.848819 L388.955905,390.890962 L1282.9969,609.749707 Z M389.252203,389.933968 L389.193681,389.919642 L389.305646,389.961786 L389.252203,389.933968 Z" id="Path-5-Copy-9" fill="url(#linearGradient-1)"></path>
                    <path d="M1278.9969,613.749707 L1328.22595,984.244619 L1808.122,1234.37523 L1808.58421,1233.48846 L1329.14881,983.59795 L1279.89821,612.940819 L385.252203,393.933968 L44.2268298,216.428798 L20.991831,35.7660924 L20,35.8936516 L43.3016487,217.074591 L384.843941,394.848819 L384.955905,394.890962 L1278.9969,613.749707 Z M385.252203,393.933968 L385.193681,393.919642 L385.305646,393.961786 L385.252203,393.933968 Z" id="Path-5-Copy-10" fill="url(#linearGradient-1)"></path>
                    <path d="M1274.9969,617.749707 L1324.22595,988.244619 L1804.122,1238.37523 L1804.58421,1237.48846 L1325.14881,987.59795 L1275.89821,616.940819 L381.252203,397.933968 L40.2268298,220.428798 L16.991831,39.7660924 L16,39.8936516 L39.3016487,221.074591 L380.843941,398.848819 L380.955905,398.890962 L1274.9969,617.749707 Z M381.252203,397.933968 L381.193681,397.919642 L381.305646,397.961786 L381.252203,397.933968 Z" id="Path-5-Copy-11" fill="url(#linearGradient-1)"></path>
                    <path d="M1270.9969,621.749707 L1320.22595,992.244619 L1800.122,1242.37523 L1800.58421,1241.48846 L1321.14881,991.59795 L1271.89821,620.940819 L377.252203,401.933968 L36.2268298,224.428798 L12.991831,43.7660924 L12,43.8936516 L35.3016487,225.074591 L376.843941,402.848819 L376.955905,402.890962 L1270.9969,621.749707 Z M377.252203,401.933968 L377.193681,401.919642 L377.305646,401.961786 L377.252203,401.933968 Z" id="Path-5-Copy-12" fill="url(#linearGradient-1)"></path>
                    <path d="M1266.9969,625.749707 L1316.22595,996.244619 L1796.122,1246.37523 L1796.58421,1245.48846 L1317.14881,995.59795 L1267.89821,624.940819 L373.252203,405.933968 L32.2268298,228.428798 L8.99183096,47.7660924 L8,47.8936516 L31.3016487,229.074591 L372.843941,406.848819 L372.955905,406.890962 L1266.9969,625.749707 Z M373.252203,405.933968 L373.193681,405.919642 L373.305646,405.961786 L373.252203,405.933968 Z" id="Path-5-Copy-13" fill="url(#linearGradient-1)"></path>
                    <path d="M1262.9969,629.749707 L1312.22595,1000.24462 L1792.122,1250.37523 L1792.58421,1249.48846 L1313.14881,999.59795 L1263.89821,628.940819 L369.252203,409.933968 L28.2268298,232.428798 L4.99183096,51.7660924 L4,51.8936516 L27.3016487,233.074591 L368.843941,410.848819 L368.955905,410.890962 L1262.9969,629.749707 Z M369.252203,409.933968 L369.193681,409.919642 L369.305646,409.961786 L369.252203,409.933968 Z" id="Path-5-Copy-14" fill="url(#linearGradient-1)"></path>
                    <path d="M1258.9969,633.749707 L1308.22595,1004.24462 L1788.122,1254.37523 L1788.58421,1253.48846 L1309.14881,1003.59795 L1259.89821,632.940819 L365.252203,413.933968 L24.2268298,236.428798 L0.991830958,55.7660924 L0,55.8936516 L23.3016487,237.074591 L364.843941,414.848819 L364.955905,414.890962 L1258.9969,633.749707 Z M365.252203,413.933968 L365.193681,413.919642 L365.305646,413.961786 L365.252203,413.933968 Z" id="Path-5-Copy-15" fill="url(#linearGradient-1)"></path>
                </g>
                <g id="Group-Copy-2" transform="translate(0.000000, 119.766092)">
                    <path d="M1315.10073,577.983615 L1364.32978,948.478527 L1844.22583,1198.60914 L1844.68804,1197.72237 L1365.25264,947.831858 L1316.00204,577.174726 L421.356033,358.167876 L80.3306599,180.662706 L57.095661,1.13686838e-13 L56.10383,0.127559205 L79.4054788,181.308498 L420.947771,359.082727 L421.059735,359.12487 L1315.10073,577.983615 Z M421.356033,358.167876 L421.297511,358.15355 L421.409476,358.195693 L421.356033,358.167876 Z" id="Path-5" fill="url(#linearGradient-1)"></path>
                    <path d="M1310.9969,581.749707 L1360.22595,952.244619 L1840.122,1202.37523 L1840.58421,1201.48846 L1361.14881,951.59795 L1311.89821,580.940819 L417.252203,361.933968 L76.2268298,184.428798 L52.991831,3.76609244 L52,3.89365164 L75.3016487,185.074591 L416.843941,362.848819 L416.955905,362.890962 L1310.9969,581.749707 Z M417.252203,361.933968 L417.193681,361.919642 L417.305646,361.961786 L417.252203,361.933968 Z" id="Path-5-Copy" fill="url(#linearGradient-2)"></path>
                    <path d="M1306.9969,585.749707 L1356.22595,956.244619 L1836.122,1206.37523 L1836.58421,1205.48846 L1357.14881,955.59795 L1307.89821,584.940819 L413.252203,365.933968 L72.2268298,188.428798 L48.991831,7.76609244 L48,7.89365164 L71.3016487,189.074591 L412.843941,366.848819 L412.955905,366.890962 L1306.9969,585.749707 Z M413.252203,365.933968 L413.193681,365.919642 L413.305646,365.961786 L413.252203,365.933968 Z" id="Path-5-Copy-2" fill="url(#linearGradient-1)"></path>
                    <path d="M1302.9969,589.749707 L1352.22595,960.244619 L1832.122,1210.37523 L1832.58421,1209.48846 L1353.14881,959.59795 L1303.89821,588.940819 L409.252203,369.933968 L68.2268298,192.428798 L44.991831,11.7660924 L44,11.8936516 L67.3016487,193.074591 L408.843941,370.848819 L408.955905,370.890962 L1302.9969,589.749707 Z M409.252203,369.933968 L409.193681,369.919642 L409.305646,369.961786 L409.252203,369.933968 Z" id="Path-5-Copy-4" fill="url(#linearGradient-1)"></path>
                    <path d="M1298.9969,593.749707 L1348.22595,964.244619 L1828.122,1214.37523 L1828.58421,1213.48846 L1349.14881,963.59795 L1299.89821,592.940819 L405.252203,373.933968 L64.2268298,196.428798 L40.991831,15.7660924 L40,15.8936516 L63.3016487,197.074591 L404.843941,374.848819 L404.955905,374.890962 L1298.9969,593.749707 Z M405.252203,373.933968 L405.193681,373.919642 L405.305646,373.961786 L405.252203,373.933968 Z" id="Path-5-Copy-5" fill="url(#linearGradient-1)"></path>
                    <path d="M1294.9969,597.749707 L1344.22595,968.244619 L1824.122,1218.37523 L1824.58421,1217.48846 L1345.14881,967.59795 L1295.89821,596.940819 L401.252203,377.933968 L60.2268298,200.428798 L36.991831,19.7660924 L36,19.8936516 L59.3016487,201.074591 L400.843941,378.848819 L400.955905,378.890962 L1294.9969,597.749707 Z M401.252203,377.933968 L401.193681,377.919642 L401.305646,377.961786 L401.252203,377.933968 Z" id="Path-5-Copy-6" fill="url(#linearGradient-1)"></path>
                    <path d="M1290.9969,601.749707 L1340.22595,972.244619 L1820.122,1222.37523 L1820.58421,1221.48846 L1341.14881,971.59795 L1291.89821,600.940819 L397.252203,381.933968 L56.2268298,204.428798 L32.991831,23.7660924 L32,23.8936516 L55.3016487,205.074591 L396.843941,382.848819 L396.955905,382.890962 L1290.9969,601.749707 Z M397.252203,381.933968 L397.193681,381.919642 L397.305646,381.961786 L397.252203,381.933968 Z" id="Path-5-Copy-7" fill="url(#linearGradient-1)"></path>
                    <path d="M1286.9969,605.749707 L1336.22595,976.244619 L1816.122,1226.37523 L1816.58421,1225.48846 L1337.14881,975.59795 L1287.89821,604.940819 L393.252203,385.933968 L52.2268298,208.428798 L28.991831,27.7660924 L28,27.8936516 L51.3016487,209.074591 L392.843941,386.848819 L392.955905,386.890962 L1286.9969,605.749707 Z M393.252203,385.933968 L393.193681,385.919642 L393.305646,385.961786 L393.252203,385.933968 Z" id="Path-5-Copy-8" fill="url(#linearGradient-1)"></path>
                    <path d="M1282.9969,609.749707 L1332.22595,980.244619 L1812.122,1230.37523 L1812.58421,1229.48846 L1333.14881,979.59795 L1283.89821,608.940819 L389.252203,389.933968 L48.2268298,212.428798 L24.991831,31.7660924 L24,31.8936516 L47.3016487,213.074591 L388.843941,390.848819 L388.955905,390.890962 L1282.9969,609.749707 Z M389.252203,389.933968 L389.193681,389.919642 L389.305646,389.961786 L389.252203,389.933968 Z" id="Path-5-Copy-9" fill="url(#linearGradient-1)"></path>
                    <path d="M1278.9969,613.749707 L1328.22595,984.244619 L1808.122,1234.37523 L1808.58421,1233.48846 L1329.14881,983.59795 L1279.89821,612.940819 L385.252203,393.933968 L44.2268298,216.428798 L20.991831,35.7660924 L20,35.8936516 L43.3016487,217.074591 L384.843941,394.848819 L384.955905,394.890962 L1278.9969,613.749707 Z M385.252203,393.933968 L385.193681,393.919642 L385.305646,393.961786 L385.252203,393.933968 Z" id="Path-5-Copy-10" fill="url(#linearGradient-1)"></path>
                    <path d="M1274.9969,617.749707 L1324.22595,988.244619 L1804.122,1238.37523 L1804.58421,1237.48846 L1325.14881,987.59795 L1275.89821,616.940819 L381.252203,397.933968 L40.2268298,220.428798 L16.991831,39.7660924 L16,39.8936516 L39.3016487,221.074591 L380.843941,398.848819 L380.955905,398.890962 L1274.9969,617.749707 Z M381.252203,397.933968 L381.193681,397.919642 L381.305646,397.961786 L381.252203,397.933968 Z" id="Path-5-Copy-11" fill="url(#linearGradient-1)"></path>
                    <path d="M1270.9969,621.749707 L1320.22595,992.244619 L1800.122,1242.37523 L1800.58421,1241.48846 L1321.14881,991.59795 L1271.89821,620.940819 L377.252203,401.933968 L36.2268298,224.428798 L12.991831,43.7660924 L12,43.8936516 L35.3016487,225.074591 L376.843941,402.848819 L376.955905,402.890962 L1270.9969,621.749707 Z M377.252203,401.933968 L377.193681,401.919642 L377.305646,401.961786 L377.252203,401.933968 Z" id="Path-5-Copy-12" fill="url(#linearGradient-1)"></path>
                    <path d="M1266.9969,625.749707 L1316.22595,996.244619 L1796.122,1246.37523 L1796.58421,1245.48846 L1317.14881,995.59795 L1267.89821,624.940819 L373.252203,405.933968 L32.2268298,228.428798 L8.99183096,47.7660924 L8,47.8936516 L31.3016487,229.074591 L372.843941,406.848819 L372.955905,406.890962 L1266.9969,625.749707 Z M373.252203,405.933968 L373.193681,405.919642 L373.305646,405.961786 L373.252203,405.933968 Z" id="Path-5-Copy-13" fill="url(#linearGradient-1)"></path>
                    <path d="M1262.9969,629.749707 L1312.22595,1000.24462 L1792.122,1250.37523 L1792.58421,1249.48846 L1313.14881,999.59795 L1263.89821,628.940819 L369.252203,409.933968 L28.2268298,232.428798 L4.99183096,51.7660924 L4,51.8936516 L27.3016487,233.074591 L368.843941,410.848819 L368.955905,410.890962 L1262.9969,629.749707 Z M369.252203,409.933968 L369.193681,409.919642 L369.305646,409.961786 L369.252203,409.933968 Z" id="Path-5-Copy-14" fill="url(#linearGradient-1)"></path>
                    <path d="M1258.9969,633.749707 L1308.22595,1004.24462 L1788.122,1254.37523 L1788.58421,1253.48846 L1309.14881,1003.59795 L1259.89821,632.940819 L365.252203,413.933968 L24.2268298,236.428798 L0.991830958,55.7660924 L0,55.8936516 L23.3016487,237.074591 L364.843941,414.848819 L364.955905,414.890962 L1258.9969,633.749707 Z M365.252203,413.933968 L365.193681,413.919642 L365.305646,413.961786 L365.252203,413.933968 Z" id="Path-5-Copy-15" fill="url(#linearGradient-1)"></path>
                </g>
            </g>
        </g>
    </g>
</svg>