<svg xmlns="http://www.w3.org/2000/svg" xmlns:xlink="http://www.w3.org/1999/xlink" width="530" height="175" viewBox="0 0 530 175">
    <defs>
        <path id="a" d="M0 18.203C0 8.15 8.15 0 18.203 0h466.194C494.45 0 502.6 8.148 502.6 18.203v110.994c0 10.053-8.15 18.203-18.206 18.203H18.197C8.147 147.4 0 139.252 0 129.197V18.203z"/>
        <filter id="b" width="108.4%" height="128.5%" x="-4.2%" y="-14.2%" filterUnits="objectBoundingBox">
            <feOffset in="SourceAlpha" result="shadowOffsetOuter1"/>
            <feGaussianBlur in="shadowOffsetOuter1" result="shadowBlurOuter1" stdDeviation="7"/>
            <feColorMatrix in="shadowBlurOuter1" values="0 0 0 0 0 0 0 0 0 0 0 0 0 0 0 0 0 0 0.1 0"/>
        </filter>
    </defs>
    <g fill="none" fill-rule="evenodd">
        <g transform="translate(14 14)">
            <mask id="c" fill="#fff">
                <use xlink:href="#a"/>
            </mask>
            <g fill-rule="nonzero">
                <use fill="#000" filter="url(#b)" xlink:href="#a"/>
                <use fill="#FFF" xlink:href="#a"/>
            </g>
            <g fill="#000" mask="url(#c)">
                <path d="M35.567 102.462h-1.845V89.326h-4.768v-1.66h11.381v1.66h-4.768v13.136zm7.16 0V87.019h1.764v6.132h.164a3.17 3.17 0 0 1 1.276-1.425c.571-.342 1.28-.513 2.128-.513 1.169 0 2.097.357 2.784 1.072.687.714 1.03 1.72 1.03 3.02v7.157H50.11v-6.727c0-.977-.217-1.71-.651-2.2-.434-.488-1.068-.732-1.902-.732-.992 0-1.75.285-2.277.856-.526.57-.79 1.324-.79 2.26v6.543h-1.763zm12.071 0V91.408h1.764v11.054h-1.764zm.882-13.3c-.335 0-.624-.12-.866-.364a1.183 1.183 0 0 1-.364-.866c0-.342.12-.632.364-.872.242-.239.531-.359.866-.359.342 0 .632.12.872.36.239.239.359.53.359.871 0 .335-.12.624-.36.866-.239.243-.53.364-.87.364zm3.653 5.27c0-.915.393-1.68 1.179-2.296.786-.615 1.767-.923 2.943-.923 1.162 0 2.117.267 2.866.8.748.533 1.18 1.254 1.297 2.164h-1.743c-.116-.445-.383-.8-.8-1.067-.417-.266-.96-.4-1.63-.4-.657 0-1.21.152-1.661.457-.452.304-.677.702-.677 1.194 0 .376.157.689.471.938.315.25.797.453 1.446.61l1.702.41c1.04.254 1.814.618 2.323 1.093.51.475.764 1.109.764 1.902 0 .991-.424 1.796-1.272 2.415-.847.618-1.9.928-3.158.928-1.23 0-2.239-.274-3.025-.82-.786-.548-1.227-1.28-1.323-2.195h1.815c.15.465.445.836.882 1.112.438.277 1.009.416 1.713.416.745 0 1.357-.16 1.835-.482.479-.321.718-.735.718-1.24 0-.384-.145-.703-.436-.96-.29-.256-.73-.456-1.318-.6l-1.897-.46c-1.032-.254-1.792-.616-2.281-1.088-.489-.472-.733-1.107-.733-1.907zm16.544 8.03V91.408h1.764v11.054h-1.764zm.882-13.3c-.335 0-.624-.12-.866-.364a1.183 1.183 0 0 1-.365-.866c0-.342.122-.632.365-.872.242-.239.531-.359.866-.359.342 0 .632.12.872.36.239.239.358.53.358.871 0 .335-.12.624-.358.866-.24.243-.53.364-.872.364zm3.653 5.27c0-.915.393-1.68 1.179-2.296.786-.615 1.767-.923 2.943-.923 1.162 0 2.117.267 2.866.8.748.533 1.18 1.254 1.297 2.164h-1.743c-.116-.445-.383-.8-.8-1.067-.417-.266-.96-.4-1.63-.4-.657 0-1.21.152-1.662.457-.45.304-.676.702-.676 1.194 0 .376.157.689.471.938.315.25.797.453 1.446.61l1.702.41c1.04.254 1.814.618 2.323 1.093.51.475.764 1.109.764 1.902 0 .991-.424 1.796-1.272 2.415-.847.618-1.9.928-3.158.928-1.23 0-2.239-.274-3.025-.82-.786-.548-1.227-1.28-1.323-2.195h1.815c.15.465.445.836.882 1.112.438.277 1.008.416 1.713.416.745 0 1.356-.16 1.835-.482.479-.321.718-.735.718-1.24 0-.384-.145-.703-.436-.96-.29-.256-.73-.456-1.318-.6l-1.897-.46c-1.032-.254-1.792-.616-2.281-1.088-.489-.472-.733-1.107-.733-1.907zm17.446 12.029c-.075 0-.159-.002-.25-.005a3.77 3.77 0 0 1-.54-.057v-1.507c.11.02.23.034.36.04.13.008.256.011.38.011.505 0 .912-.135 1.22-.405.307-.27.577-.74.81-1.41l.204-.656-4.09-11.064h1.906l3.036 9.095h.164l3.025-9.095h1.876l-4.317 11.73c-.472 1.286-.976 2.16-1.512 2.626-.537.464-1.294.697-2.272.697zm14.256-3.804c-1.573 0-2.815-.511-3.728-1.533-.912-1.022-1.368-2.419-1.368-4.19 0-1.776.456-3.174 1.368-4.193.913-1.019 2.155-1.528 3.728-1.528 1.572 0 2.814.51 3.727 1.528.913 1.019 1.369 2.417 1.369 4.194 0 1.77-.456 3.167-1.369 4.189-.913 1.022-2.155 1.533-3.727 1.533zm0-1.59c1.046 0 1.852-.362 2.42-1.087.567-.724.85-1.74.85-3.045 0-1.313-.283-2.33-.85-3.05-.568-.722-1.374-1.082-2.42-1.082-1.046 0-1.853.36-2.42 1.081-.568.722-.851 1.738-.851 3.05 0 1.307.283 2.322.85 3.046.568.725 1.375 1.087 2.42 1.087zm16.47-9.659v11.054h-1.682v-1.733h-.164c-.273.615-.7 1.09-1.282 1.425-.58.335-1.295.503-2.143.503-1.237 0-2.175-.356-2.814-1.067-.64-.71-.96-1.72-.96-3.025v-7.157h1.765v6.727c0 .99.196 1.724.59 2.2.392.474 1.03.712 1.912.712.977 0 1.724-.274 2.24-.82.516-.547.774-1.306.774-2.277v-6.542h1.764zm2.986 11.054V91.408h1.682v1.64h.164c.164-.54.533-.98 1.107-1.322.574-.342 1.227-.513 1.959-.513a7.668 7.668 0 0 1 .882.051v1.764a3.32 3.32 0 0 0-.482-.067 7.025 7.025 0 0 0-.646-.035c-.841 0-1.535.253-2.082.758-.547.506-.82 1.149-.82 1.928v6.85h-1.764zm13.991 0v-9.577h-1.835v-1.477h1.835v-1.23c0-1.101.272-1.92.815-2.456.544-.537 1.342-.805 2.395-.805.218 0 .425.008.62.025.195.018.385.043.57.077v1.436a2.803 2.803 0 0 0-.38-.041 9.498 9.498 0 0 0-.451-.01c-.636 0-1.096.152-1.38.456-.283.304-.425.76-.425 1.369v1.179h2.533v1.477h-2.533v9.577h-1.764zm6.565 0V91.408h1.764v11.054h-1.764zm.882-13.3c-.335 0-.624-.12-.867-.364a1.183 1.183 0 0 1-.364-.866c0-.342.122-.632.364-.872.243-.239.532-.359.867-.359.342 0 .632.12.871.36.24.239.36.53.36.871 0 .335-.12.624-.36.866-.239.243-.53.364-.871.364zm3.909 13.3V91.408h1.682v1.743h.164a3.245 3.245 0 0 1 1.235-1.425c.544-.342 1.24-.513 2.087-.513 1.244 0 2.2.354 2.866 1.061.666.708 1 1.718 1 3.03v7.158h-1.764v-6.727c0-.998-.214-1.736-.64-2.215-.428-.478-1.083-.717-1.964-.717-.882 0-1.586.276-2.113.83-.526.554-.79 1.316-.79 2.287v6.542h-1.763zm15.322-1.354c.909 0 1.663-.265 2.26-.794.599-.53.898-1.188.898-1.974v-1.015l-2.974.194c-1.613.11-2.42.711-2.42 1.805 0 .56.212.998.636 1.313.424.314.957.471 1.6.471zm-.328 1.549c-1.074 0-1.964-.296-2.672-.887-.707-.592-1.06-1.393-1.06-2.405 0-2.023 1.342-3.114 4.029-3.27l3.189-.196v-1.005c0-1.408-.834-2.112-2.502-2.112-.663 0-1.213.12-1.65.359-.438.24-.719.578-.842 1.015h-1.784c.116-.889.574-1.601 1.374-2.138.8-.536 1.788-.805 2.964-.805 1.346 0 2.384.327 3.112.98.728.652 1.092 1.553 1.092 2.701v7.568h-1.682v-1.63h-.164a3.635 3.635 0 0 1-1.415 1.353c-.588.314-1.251.472-1.99.472zm8.277-.195V87.019h1.764v15.443h-1.764zm24.347-11.054l-.312 1.118-.774 2.763-.923 3.292a5706.53 5706.53 0 0 0-.775 2.763l-.312 1.118h-1.795l-2.47-8.552h-.165l-2.46 8.552h-1.785l-3.097-11.054h1.784l2.174 8.839h.164l2.472-8.839h1.691l2.472 8.839h.164l2.174-8.839h1.773zm5.12 9.7c.909 0 1.662-.265 2.26-.794.599-.53.898-1.188.898-1.974v-1.015l-2.974.194c-1.613.11-2.42.711-2.42 1.805 0 .56.212.998.636 1.313.424.314.957.471 1.6.471zm-.329 1.549c-1.073 0-1.963-.296-2.67-.887-.708-.592-1.062-1.393-1.062-2.405 0-2.023 1.343-3.114 4.03-3.27l3.189-.196v-1.005c0-1.408-.834-2.112-2.502-2.112-.663 0-1.214.12-1.651.359-.438.24-.718.578-.84 1.015h-1.785c.116-.889.574-1.601 1.374-2.138.8-.536 1.787-.805 2.963-.805 1.347 0 2.384.327 3.112.98.728.652 1.092 1.553 1.092 2.701v7.568h-1.681v-1.63h-.164a3.635 3.635 0 0 1-1.415 1.353c-.588.314-1.251.472-1.99.472zm8.175-.195V91.408h1.682v1.64h.164c.164-.54.533-.98 1.107-1.322.574-.342 1.227-.513 1.959-.513a7.668 7.668 0 0 1 .882.051v1.764a3.32 3.32 0 0 0-.482-.067 7.025 7.025 0 0 0-.646-.035c-.841 0-1.535.253-2.082.758-.547.506-.82 1.149-.82 1.928v6.85H217.5zm7.867 0V91.408h1.682v1.743h.164a3.245 3.245 0 0 1 1.236-1.425c.543-.342 1.239-.513 2.086-.513 1.244 0 2.2.354 2.866 1.061.667.708 1 1.718 1 3.03v7.158h-1.764v-6.727c0-.998-.213-1.736-.64-2.215-.428-.478-1.082-.717-1.964-.717-.882 0-1.586.276-2.113.83-.526.554-.79 1.316-.79 2.287v6.542h-1.763zm11.959 0V91.408h1.763v11.054h-1.763zm.882-13.3c-.335 0-.624-.12-.867-.364a1.183 1.183 0 0 1-.364-.866c0-.342.121-.632.364-.872.243-.239.532-.359.867-.359.341 0 .632.12.871.36.24.239.359.53.359.871 0 .335-.12.624-.359.866-.24.243-.53.364-.871.364zm3.909 13.3V91.408h1.681v1.743h.164a3.245 3.245 0 0 1 1.236-1.425c.543-.342 1.239-.513 2.087-.513 1.244 0 2.2.354 2.866 1.061.666.708 1 1.718 1 3.03v7.158h-1.764v-6.727c0-.998-.214-1.736-.641-2.215-.427-.478-1.082-.717-1.964-.717-.882 0-1.586.276-2.112.83-.527.554-.79 1.316-.79 2.287v6.542h-1.763zm16.388-1.723c1.025 0 1.828-.36 2.41-1.082.58-.72.871-1.683.871-2.886s-.292-2.165-.877-2.887c-.584-.72-1.386-1.081-2.404-1.081-1.026 0-1.815.36-2.369 1.081-.554.722-.83 1.684-.83 2.887s.276 2.165.83 2.886c.554.721 1.343 1.082 2.369 1.082zm.082 5.968c-1.333 0-2.405-.275-3.215-.826-.81-.55-1.283-1.283-1.42-2.199h1.866c.096.451.383.812.862 1.082.478.27 1.114.405 1.907.405.991 0 1.765-.23 2.322-.692.557-.462.836-1.1.836-1.913v-2.174h-.164a3.646 3.646 0 0 1-1.425 1.41c-.602.332-1.282.498-2.04.498-1.43 0-2.56-.508-3.39-1.523-.83-1.015-1.246-2.35-1.246-4.004 0-1.654.417-2.994 1.251-4.02.834-1.025 1.962-1.538 3.384-1.538.773 0 1.478.176 2.118.528.639.352 1.116.826 1.43 1.42h.164v-1.753h1.682v11.249c0 1.237-.443 2.221-1.328 2.953-.885.731-2.083 1.097-3.594 1.097zm9.364-4.143c-.362 0-.675-.131-.938-.394a1.282 1.282 0 0 1-.395-.939c0-.369.132-.683.395-.943.263-.26.576-.39.938-.39.37 0 .684.13.943.39.26.26.39.574.39.943 0 .363-.13.675-.39.939-.26.263-.574.394-.943.394zm10.259-14.899h5.075c2.195 0 3.907.65 5.138 1.949 1.23 1.298 1.845 3.113 1.845 5.444s-.613 4.148-1.84 5.45c-1.227 1.303-2.941 1.954-5.143 1.954h-5.075V87.665zm1.845 1.661v11.475h3.107c1.655 0 2.938-.503 3.85-1.508.913-1.005 1.37-2.41 1.37-4.214 0-1.812-.46-3.223-1.38-4.235-.92-1.012-2.2-1.518-3.84-1.518h-3.107zm17.25 3.446c-.882 0-1.607.297-2.174.892s-.885 1.38-.954 2.358h6.091c-.02-.977-.3-1.763-.84-2.358-.54-.595-1.248-.892-2.123-.892zm2.912 6.829h1.764a3.867 3.867 0 0 1-1.62 2.24c-.814.544-1.826.816-3.036.816-1.53 0-2.744-.515-3.64-1.544-.895-1.028-1.343-2.418-1.343-4.168 0-1.736.451-3.126 1.353-4.168.903-1.043 2.113-1.564 3.63-1.564 1.49 0 2.663.498 3.517 1.492.855.995 1.282 2.35 1.282 4.066v.677h-7.947v.082c.048 1.093.358 1.962.928 2.604.571.643 1.325.964 2.261.964.711 0 1.306-.128 1.785-.385a2.418 2.418 0 0 0 1.066-1.112zm9.723-8.388c1.408 0 2.534.52 3.379 1.559.844 1.039 1.266 2.427 1.266 4.163 0 1.73-.422 3.115-1.266 4.158-.845 1.042-1.97 1.564-3.379 1.564-.786 0-1.483-.164-2.092-.493a3.202 3.202 0 0 1-1.364-1.363h-.164v5.352h-1.763V91.408h1.681v1.846h.164a3.895 3.895 0 0 1 1.472-1.497 4.048 4.048 0 0 1 2.066-.544zm-.42 9.854c1.018 0 1.813-.366 2.384-1.097.57-.731.856-1.743.856-3.035s-.286-2.304-.856-3.035c-.571-.732-1.362-1.097-2.374-1.097-.998 0-1.791.37-2.38 1.112-.587.742-.88 1.748-.88 3.02 0 1.265.293 2.27.88 3.015.589.745 1.378 1.117 2.37 1.117zm12.04 1.59c-1.572 0-2.815-.511-3.727-1.533-.913-1.022-1.37-2.419-1.37-4.19 0-1.776.457-3.174 1.37-4.193.912-1.019 2.155-1.528 3.727-1.528s2.815.51 3.727 1.528c.913 1.019 1.37 2.417 1.37 4.194 0 1.77-.457 3.167-1.37 4.189-.912 1.022-2.155 1.533-3.727 1.533zm0-1.59c1.046 0 1.853-.362 2.42-1.087.567-.724.851-1.74.851-3.045 0-1.313-.284-2.33-.851-3.05-.567-.722-1.374-1.082-2.42-1.082-1.046 0-1.852.36-2.42 1.081-.567.722-.851 1.738-.851 3.05 0 1.307.284 2.322.851 3.046.568.725 1.374 1.087 2.42 1.087zm7.272-6.634c0-.916.394-1.682 1.18-2.297.786-.615 1.767-.923 2.943-.923 1.162 0 2.117.267 2.865.8.749.533 1.181 1.254 1.298 2.164h-1.744c-.116-.445-.382-.8-.8-1.067-.416-.266-.96-.4-1.63-.4-.656 0-1.21.152-1.66.457-.452.304-.678.702-.678 1.194 0 .376.158.689.472.938.315.25.796.453 1.446.61l1.702.41c1.04.254 1.813.618 2.323 1.093.509.475.763 1.109.763 1.902 0 .991-.423 1.796-1.271 2.415-.848.618-1.9.928-3.158.928-1.23 0-2.239-.274-3.025-.82-.786-.548-1.227-1.28-1.323-2.195h1.815c.15.465.444.836.882 1.112.437.277 1.008.416 1.712.416.745 0 1.357-.16 1.836-.482.478-.321.717-.735.717-1.24 0-.384-.145-.703-.435-.96-.29-.256-.73-.456-1.318-.6l-1.897-.46c-1.032-.254-1.793-.616-2.281-1.088-.49-.472-.734-1.107-.734-1.907zm10.954 8.029V91.408h1.764v11.054h-1.764zm.882-13.3c-.335 0-.624-.12-.867-.364a1.183 1.183 0 0 1-.364-.866c0-.342.122-.632.364-.872.243-.239.532-.359.867-.359.342 0 .632.12.871.36.24.239.36.53.36.871 0 .335-.12.624-.36.866-.239.243-.53.364-.871.364zm4.647-.615h1.764v2.861h2.46v1.477h-2.46v6.254c0 .65.13 1.122.39 1.416.26.293.676.44 1.25.44.158 0 .293-.003.406-.01.112-.007.25-.017.415-.03v1.486a5.304 5.304 0 0 1-1.036.103c-1.135 0-1.95-.23-2.445-.687-.496-.458-.744-1.214-.744-2.266v-6.706h-1.784v-1.477h1.784v-2.86zm12.146 13.915V91.408h1.681v1.743h.164a2.993 2.993 0 0 1 1.18-1.43c.533-.339 1.168-.508 1.907-.508.752 0 1.386.18 1.902.539.516.358.9.825 1.153 1.4h.164c.301-.589.749-1.059 1.344-1.41.594-.353 1.275-.529 2.04-.529 1.128 0 1.996.311 2.605.933.608.622.912 1.514.912 2.677v7.639h-1.763v-7.23c0-.813-.193-1.421-.58-1.824-.386-.404-.969-.605-1.748-.605-.766 0-1.384.25-1.856.748a2.533 2.533 0 0 0-.707 1.805v7.106h-1.764v-7.506c0-.656-.21-1.18-.63-1.569-.421-.39-.98-.584-1.677-.584-.725 0-1.333.273-1.825.82-.493.547-.739 1.21-.739 1.99v6.849h-1.763zm22.479.195c-1.573 0-2.815-.511-3.728-1.533-.912-1.022-1.369-2.419-1.369-4.19 0-1.776.457-3.174 1.37-4.193.912-1.019 2.154-1.528 3.727-1.528 1.572 0 2.814.51 3.727 1.528.912 1.019 1.369 2.417 1.369 4.194 0 1.77-.457 3.167-1.37 4.189-.912 1.022-2.154 1.533-3.726 1.533zm0-1.59c1.045 0 1.852-.362 2.42-1.087.567-.724.85-1.74.85-3.045 0-1.313-.283-2.33-.85-3.05-.568-.722-1.375-1.082-2.42-1.082-1.046 0-1.853.36-2.42 1.081-.568.722-.851 1.738-.851 3.05 0 1.307.283 2.322.85 3.046.568.725 1.375 1.087 2.42 1.087zm7.528 1.395V91.408h1.682v1.64h.164c.164-.54.533-.98 1.107-1.322.575-.342 1.227-.513 1.959-.513a7.668 7.668 0 0 1 .882.051v1.764a3.32 3.32 0 0 0-.482-.067 7.025 7.025 0 0 0-.646-.035c-.841 0-1.535.253-2.082.758-.547.506-.82 1.149-.82 1.928v6.85h-1.764zm11.764-9.69c-.882 0-1.607.297-2.174.892s-.885 1.38-.954 2.358h6.091c-.02-.977-.3-1.763-.84-2.358-.54-.595-1.248-.892-2.123-.892zm2.912 6.829h1.764a3.867 3.867 0 0 1-1.62 2.24c-.814.544-1.826.816-3.036.816-1.53 0-2.744-.515-3.64-1.544-.895-1.028-1.343-2.418-1.343-4.168 0-1.736.451-3.126 1.354-4.168.902-1.043 2.112-1.564 3.63-1.564 1.49 0 2.662.498 3.517 1.492.854.995 1.281 2.35 1.281 4.066v.677h-7.947v.082c.048 1.093.358 1.962.928 2.604.571.643 1.325.964 2.261.964.711 0 1.306-.128 1.785-.385a2.418 2.418 0 0 0 1.066-1.112zm13.335 1.507c.909 0 1.663-.265 2.26-.794.599-.53.898-1.188.898-1.974v-1.015l-2.974.194c-1.613.11-2.42.711-2.42 1.805 0 .56.212.998.636 1.313.424.314.957.471 1.6.471zm-.328 1.549c-1.074 0-1.964-.296-2.671-.887-.708-.592-1.062-1.393-1.062-2.405 0-2.023 1.344-3.114 4.03-3.27l3.19-.196v-1.005c0-1.408-.835-2.112-2.503-2.112-.663 0-1.213.12-1.65.359-.438.24-.719.578-.842 1.015h-1.784c.116-.889.574-1.601 1.374-2.138.8-.536 1.788-.805 2.964-.805 1.346 0 2.384.327 3.112.98.728.652 1.092 1.553 1.092 2.701v7.568h-1.682v-1.63h-.164a3.635 3.635 0 0 1-1.415 1.353c-.588.314-1.251.472-1.99.472zm7.918-8.224c0-.916.393-1.682 1.18-2.297.785-.615 1.766-.923 2.942-.923 1.162 0 2.118.267 2.866.8.749.533 1.181 1.254 1.297 2.164h-1.743c-.116-.445-.383-.8-.8-1.067-.417-.266-.96-.4-1.63-.4-.656 0-1.21.152-1.661.457-.451.304-.677.702-.677 1.194 0 .376.157.689.472.938.314.25.796.453 1.446.61l1.702.41c1.039.254 1.813.618 2.322 1.093.51.475.764 1.109.764 1.902 0 .991-.424 1.796-1.271 2.415-.848.618-1.9.928-3.159.928-1.23 0-2.238-.274-3.024-.82-.787-.548-1.228-1.28-1.323-2.195h1.815c.15.465.444.836.882 1.112.437.277 1.008.416 1.712.416.745 0 1.357-.16 1.835-.482.479-.321.718-.735.718-1.24 0-.384-.145-.703-.436-.96-.29-.256-.73-.456-1.317-.6l-1.897-.46c-1.032-.254-1.793-.616-2.282-1.088-.488-.472-.733-1.107-.733-1.907zm10.451 0c0-.916.393-1.682 1.18-2.297.786-.615 1.767-.923 2.942-.923 1.162 0 2.118.267 2.866.8.749.533 1.181 1.254 1.297 2.164h-1.743c-.116-.445-.383-.8-.8-1.067-.417-.266-.96-.4-1.63-.4-.656 0-1.21.152-1.661.457-.451.304-.677.702-.677 1.194 0 .376.157.689.472.938.314.25.796.453 1.446.61l1.702.41c1.039.254 1.813.618 2.322 1.093.51.475.764 1.109.764 1.902 0 .991-.424 1.796-1.271 2.415-.848.618-1.9.928-3.158.928-1.231 0-2.24-.274-3.025-.82-.787-.548-1.227-1.28-1.323-2.195h1.815c.15.465.444.836.882 1.112.437.277 1.008.416 1.712.416.745 0 1.357-.16 1.835-.482.479-.321.718-.735.718-1.24 0-.384-.145-.703-.436-.96-.29-.256-.73-.456-1.317-.6l-1.897-.46c-1.032-.254-1.793-.616-2.282-1.088-.488-.472-.733-1.107-.733-1.907zm15.322-1.661c-.882 0-1.606.297-2.174.892-.567.595-.885 1.38-.953 2.358h6.09c-.02-.977-.3-1.763-.84-2.358-.54-.595-1.248-.892-2.123-.892zm2.912 6.829h1.764a3.867 3.867 0 0 1-1.62 2.24c-.814.544-1.826.816-3.036.816-1.53 0-2.744-.515-3.64-1.544-.895-1.028-1.343-2.418-1.343-4.168 0-1.736.451-3.126 1.354-4.168.902-1.043 2.112-1.564 3.63-1.564 1.49 0 2.662.498 3.517 1.492.854.995 1.281 2.35 1.281 4.066v.677h-7.946v.082c.047 1.093.357 1.962.927 2.604.571.643 1.325.964 2.261.964.711 0 1.306-.128 1.785-.385a2.418 2.418 0 0 0 1.066-1.112zm5.078-11.054h1.764v2.861h2.46v1.477h-2.46v6.254c0 .65.13 1.122.39 1.416.26.293.676.44 1.25.44.158 0 .293-.003.405-.01.113-.007.252-.017.416-.03v1.486a5.304 5.304 0 0 1-1.036.103c-1.135 0-1.95-.23-2.445-.687-.496-.458-.744-1.214-.744-2.266v-6.706h-1.784v-1.477h1.784v-2.86zm6.093 5.886c0-.916.393-1.682 1.18-2.297.786-.615 1.767-.923 2.942-.923 1.163 0 2.118.267 2.866.8.749.533 1.181 1.254 1.297 2.164h-1.743c-.116-.445-.383-.8-.8-1.067-.416-.266-.96-.4-1.63-.4-.656 0-1.21.152-1.661.457-.451.304-.677.702-.677 1.194 0 .376.157.689.472.938.314.25.796.453 1.446.61l1.702.41c1.039.254 1.813.618 2.322 1.093.51.475.764 1.109.764 1.902 0 .991-.424 1.796-1.271 2.415-.848.618-1.9.928-3.158.928-1.23 0-2.24-.274-3.025-.82-.786-.548-1.227-1.28-1.323-2.195h1.815c.15.465.444.836.882 1.112.437.277 1.008.416 1.712.416.745 0 1.357-.16 1.836-.482.478-.321.717-.735.717-1.24 0-.384-.145-.703-.435-.96-.291-.256-.73-.456-1.318-.6l-1.897-.46c-1.032-.254-1.793-.616-2.282-1.088-.488-.472-.733-1.107-.733-1.907zM29.692 127.662v-11.054h1.764v11.054h-1.764zm.882-13.3c-.335 0-.624-.12-.867-.364a1.183 1.183 0 0 1-.364-.866c0-.342.122-.632.364-.872.243-.239.532-.359.867-.359.342 0 .632.12.871.36.24.239.36.53.36.871 0 .335-.12.624-.36.866-.239.243-.53.364-.871.364zm3.909 13.3v-11.054h1.681v1.743h.165a2.993 2.993 0 0 1 1.179-1.43c.533-.339 1.169-.508 1.907-.508.752 0 1.386.18 1.902.539.516.358.9.825 1.154 1.4h.164c.3-.589.748-1.059 1.343-1.41.595-.353 1.275-.529 2.04-.529 1.128 0 1.997.311 2.605.933.608.622.913 1.514.913 2.677v7.639h-1.764v-7.23c0-.813-.193-1.421-.58-1.824-.386-.404-.968-.605-1.748-.605-.765 0-1.384.25-1.856.748a2.533 2.533 0 0 0-.707 1.805v7.106h-1.764v-7.506c0-.656-.21-1.18-.63-1.569-.42-.39-.98-.584-1.677-.584-.725 0-1.333.273-1.825.82-.492.547-.738 1.21-.738 1.99v6.849h-1.764zm17.936 0v-11.054h1.682v1.743h.164a2.993 2.993 0 0 1 1.18-1.43c.532-.339 1.168-.508 1.906-.508.752 0 1.386.18 1.903.539.516.358.9.825 1.153 1.4h.164c.3-.589.749-1.059 1.343-1.41.595-.353 1.275-.529 2.041-.529 1.128 0 1.996.311 2.604.933.609.622.913 1.514.913 2.677v7.639h-1.764v-7.23c0-.813-.193-1.421-.579-1.824-.386-.404-.969-.605-1.748-.605-.766 0-1.385.25-1.856.748a2.533 2.533 0 0 0-.708 1.805v7.106h-1.763v-7.506c0-.656-.21-1.18-.631-1.569-.42-.39-.98-.584-1.677-.584-.724 0-1.333.273-1.825.82-.492.547-.738 1.21-.738 1.99v6.849h-1.764zm22.346-9.69c-.882 0-1.606.297-2.174.892-.567.595-.885 1.38-.953 2.358h6.09c-.02-.977-.3-1.763-.84-2.358-.54-.595-1.248-.892-2.123-.892zm2.912 6.829h1.764a3.867 3.867 0 0 1-1.62 2.24c-.814.544-1.826.816-3.036.816-1.53 0-2.744-.515-3.64-1.544-.895-1.028-1.343-2.418-1.343-4.168 0-1.736.451-3.126 1.354-4.168.902-1.043 2.112-1.564 3.63-1.564 1.49 0 2.662.498 3.517 1.492.854.995 1.281 2.35 1.281 4.066v.677h-7.946v.082c.047 1.093.357 1.962.927 2.604.571.643 1.325.964 2.261.964.711 0 1.306-.128 1.785-.385a2.418 2.418 0 0 0 1.066-1.112zm8.431 3.056c-1.415 0-2.543-.52-3.384-1.559-.84-1.04-1.26-2.427-1.26-4.163 0-1.736.423-3.124 1.27-4.163.848-1.04 1.973-1.559 3.374-1.559.773 0 1.465.171 2.077.513a3.384 3.384 0 0 1 1.389 1.425h.154v-6.132h1.763v15.443H89.81v-1.764h-.164a3.712 3.712 0 0 1-1.456 1.44 4.217 4.217 0 0 1-2.082.519zm.41-9.854c-1.005 0-1.794.367-2.368 1.102-.575.735-.862 1.745-.862 3.03 0 1.292.286 2.304.857 3.035.57.731 1.362 1.097 2.373 1.097 1.005 0 1.798-.369 2.38-1.107.58-.738.87-1.747.87-3.025 0-1.265-.291-2.27-.876-3.015-.584-.745-1.376-1.117-2.374-1.117zm8.103 9.659v-11.054h1.764v11.054H94.62zm.882-13.3c-.335 0-.624-.12-.866-.364a1.183 1.183 0 0 1-.364-.866c0-.342.121-.632.364-.872.242-.239.531-.359.866-.359.342 0 .632.12.872.36.239.239.359.53.359.871 0 .335-.12.624-.36.866-.239.243-.53.364-.87.364zm7.314 11.946c.909 0 1.662-.265 2.26-.794.599-.53.898-1.188.898-1.974v-1.015l-2.974.194c-1.613.11-2.42.711-2.42 1.805 0 .56.212.998.636 1.313.424.314.957.471 1.6.471zm-.329 1.549c-1.073 0-1.963-.296-2.67-.887-.708-.592-1.062-1.393-1.062-2.405 0-2.023 1.343-3.114 4.03-3.27l3.189-.196v-1.005c0-1.408-.834-2.112-2.502-2.112-.663 0-1.214.12-1.651.359-.438.24-.718.578-.84 1.015h-1.785c.116-.889.574-1.601 1.374-2.138.8-.536 1.788-.805 2.963-.805 1.347 0 2.384.327 3.112.98.728.652 1.092 1.553 1.092 2.701v7.568h-1.681v-1.63h-.164a3.635 3.635 0 0 1-1.415 1.353c-.588.314-1.251.472-1.99.472zm8.913-14.11h1.764v2.861h2.461v1.477h-2.46v6.254c0 .65.129 1.122.389 1.416.26.293.676.44 1.25.44.158 0 .293-.003.406-.01.113-.007.251-.017.415-.03v1.486a5.304 5.304 0 0 1-1.036.103c-1.134 0-1.95-.23-2.445-.687-.496-.458-.744-1.214-.744-2.266v-6.706h-1.784v-1.477h1.784v-2.86zm10.81 4.225c-.881 0-1.606.297-2.173.892-.568.595-.886 1.38-.954 2.358h6.09c-.02-.977-.3-1.763-.84-2.358-.54-.595-1.248-.892-2.123-.892zm2.913 6.829h1.763a3.867 3.867 0 0 1-1.62 2.24c-.813.544-1.825.816-3.035.816-1.531 0-2.745-.515-3.64-1.544-.896-1.028-1.343-2.418-1.343-4.168 0-1.736.45-3.126 1.353-4.168.902-1.043 2.112-1.564 3.63-1.564 1.49 0 2.663.498 3.517 1.492.855.995 1.282 2.35 1.282 4.066v.677h-7.947v.082c.048 1.093.357 1.962.928 2.604.57.643 1.324.964 2.26.964.712 0 1.307-.128 1.785-.385a2.418 2.418 0 0 0 1.067-1.112zm4.442 2.86V112.22h1.764v15.443h-1.764zm5.796 4c-.076 0-.16-.002-.252-.005a3.77 3.77 0 0 1-.538-.057v-1.507c.11.02.23.034.359.04.13.008.256.011.38.011.505 0 .912-.135 1.22-.405.307-.27.577-.74.81-1.41l.205-.656-4.092-11.064h1.908l3.035 9.095h.164l3.025-9.095h1.876l-4.317 11.73c-.471 1.286-.975 2.16-1.512 2.626-.537.464-1.294.697-2.271.697zm16.452-17.914h1.763v2.861h2.461v1.477h-2.46v6.254c0 .65.13 1.122.389 1.416.26.293.677.44 1.251.44.157 0 .292-.003.405-.01.113-.007.251-.017.415-.03v1.486a5.304 5.304 0 0 1-1.035.103c-1.135 0-1.95-.23-2.446-.687-.495-.458-.743-1.214-.743-2.266v-6.706h-1.784v-1.477h1.784v-2.86zm10.943 14.11c-1.572 0-2.815-.511-3.727-1.533-.913-1.022-1.37-2.419-1.37-4.19 0-1.776.457-3.174 1.37-4.193.912-1.019 2.155-1.528 3.727-1.528s2.815.51 3.727 1.528c.913 1.019 1.37 2.417 1.37 4.194 0 1.77-.457 3.167-1.37 4.189-.912 1.022-2.155 1.533-3.727 1.533zm0-1.59c1.046 0 1.853-.362 2.42-1.087.567-.724.851-1.74.851-3.045 0-1.313-.284-2.33-.851-3.05-.567-.722-1.374-1.082-2.42-1.082-1.046 0-1.853.36-2.42 1.081-.567.722-.851 1.738-.851 3.05 0 1.307.284 2.322.851 3.046.567.725 1.374 1.087 2.42 1.087zm16.524.041c.909 0 1.663-.265 2.26-.794.599-.53.898-1.188.898-1.974v-1.015l-2.974.194c-1.613.11-2.42.711-2.42 1.805 0 .56.212.998.636 1.313.424.314.957.471 1.6.471zm-.328 1.549c-1.074 0-1.964-.296-2.671-.887-.708-.592-1.062-1.393-1.062-2.405 0-2.023 1.343-3.114 4.03-3.27l3.189-.196v-1.005c0-1.408-.834-2.112-2.502-2.112-.663 0-1.213.12-1.65.359-.438.24-.719.578-.842 1.015h-1.784c.116-.889.574-1.601 1.374-2.138.8-.536 1.788-.805 2.964-.805 1.346 0 2.384.327 3.112.98.728.652 1.092 1.553 1.092 2.701v7.568h-1.682v-1.63h-.164a3.635 3.635 0 0 1-1.415 1.353c-.588.314-1.251.472-1.99.472zm16.788-11.249l-.416 1.118c-.276.745-.617 1.666-1.02 2.763s-.808 2.194-1.215 3.292a4092.96 4092.96 0 0 1-1.025 2.763l-.416 1.118h-1.804l-4.092-11.054h1.887l3.025 9.106h.164l3.025-9.106h1.887zm6.154 11.249c-1.572 0-2.814-.511-3.727-1.533-.912-1.022-1.369-2.419-1.369-4.19 0-1.776.457-3.174 1.37-4.193.912-1.019 2.154-1.528 3.726-1.528 1.573 0 2.815.51 3.728 1.528.912 1.019 1.369 2.417 1.369 4.194 0 1.77-.457 3.167-1.37 4.189-.912 1.022-2.154 1.533-3.727 1.533zm0-1.59c1.046 0 1.853-.362 2.42-1.087.568-.724.851-1.74.851-3.045 0-1.313-.283-2.33-.85-3.05-.568-.722-1.375-1.082-2.42-1.082-1.046 0-1.853.36-2.42 1.081-.568.722-.852 1.738-.852 3.05 0 1.307.284 2.322.851 3.046.568.725 1.375 1.087 2.42 1.087zm7.57 1.395v-11.054h1.764v11.054h-1.764zm.882-13.3c-.335 0-.624-.12-.866-.364a1.183 1.183 0 0 1-.364-.866c0-.342.12-.632.364-.872.242-.239.531-.359.866-.359.342 0 .632.12.872.36.239.239.358.53.358.871 0 .335-.12.624-.358.866-.24.243-.53.364-.872.364zm8 13.495c-1.415 0-2.543-.52-3.383-1.559-.841-1.04-1.262-2.427-1.262-4.163 0-1.736.424-3.124 1.272-4.163.848-1.04 1.972-1.559 3.373-1.559.773 0 1.465.171 2.077.513a3.384 3.384 0 0 1 1.39 1.425h.153v-6.132h1.764v15.443h-1.682v-1.764h-.164a3.712 3.712 0 0 1-1.456 1.44 4.217 4.217 0 0 1-2.082.519zm.41-9.854c-1.004 0-1.794.367-2.368 1.102-.574.735-.861 1.745-.861 3.03 0 1.292.285 2.304.856 3.035.57.731 1.362 1.097 2.374 1.097 1.004 0 1.797-.369 2.379-1.107.58-.738.871-1.747.871-3.025 0-1.265-.292-2.27-.877-3.015-.584-.745-1.375-1.117-2.373-1.117zm13.756 9.659v-15.443h1.764v15.443h-1.764zm4.893 0v-11.054h1.764v11.054h-1.764zm.882-13.3c-.335 0-.624-.12-.866-.364a1.183 1.183 0 0 1-.364-.866c0-.342.121-.632.364-.872.242-.239.531-.359.866-.359.342 0 .632.12.872.36.239.239.359.53.359.871 0 .335-.12.624-.36.866-.239.243-.529.364-.87.364zm7.98 2.051a4.1 4.1 0 0 1 2.087.554c.639.37 1.123.865 1.45 1.487h.165v-1.846h1.702v14.745h-1.784v-5.352h-.164a3.64 3.64 0 0 1-1.41 1.379c-.585.318-1.267.477-2.046.477-1.408 0-2.53-.518-3.368-1.554-.838-1.036-1.256-2.425-1.256-4.168 0-1.736.42-3.124 1.26-4.163.842-1.04 1.963-1.559 3.364-1.559zm.4 9.854c1.012 0 1.81-.37 2.394-1.112.585-.742.877-1.749.877-3.02 0-1.265-.294-2.27-.882-3.015-.588-.745-1.38-1.117-2.379-1.117-1.005 0-1.79.365-2.358 1.097-.568.731-.851 1.743-.851 3.035 0 1.299.282 2.312.846 3.04.564.728 1.348 1.092 2.353 1.092zm16.932-9.659v11.054h-1.682v-1.733h-.164c-.274.615-.7 1.09-1.282 1.425-.58.335-1.295.503-2.143.503-1.237 0-2.175-.356-2.815-1.067-.639-.71-.958-1.72-.958-3.025v-7.157h1.763v6.727c0 .99.197 1.724.59 2.2.393.474 1.03.712 1.912.712.978 0 1.725-.274 2.24-.82.517-.547.775-1.306.775-2.277v-6.542h1.764zm3.027 11.054v-11.054h1.764v11.054h-1.764zm.882-13.3c-.335 0-.624-.12-.867-.364a1.183 1.183 0 0 1-.364-.866c0-.342.122-.632.364-.872.243-.239.532-.359.867-.359.341 0 .632.12.871.36.24.239.36.53.36.871 0 .335-.12.624-.36.866-.239.243-.53.364-.871.364zm8 13.495c-1.415 0-2.543-.52-3.384-1.559-.84-1.04-1.26-2.427-1.26-4.163 0-1.736.423-3.124 1.27-4.163.848-1.04 1.973-1.559 3.374-1.559.773 0 1.465.171 2.077.513a3.384 3.384 0 0 1 1.389 1.425h.154v-6.132h1.763v15.443h-1.681v-1.764h-.164a3.712 3.712 0 0 1-1.456 1.44 4.217 4.217 0 0 1-2.082.519zm.41-9.854c-1.005 0-1.794.367-2.368 1.102-.575.735-.862 1.745-.862 3.03 0 1.292.286 2.304.856 3.035.571.731 1.363 1.097 2.374 1.097 1.005 0 1.798-.369 2.38-1.107.58-.738.87-1.747.87-3.025 0-1.265-.291-2.27-.876-3.015-.584-.745-1.376-1.117-2.374-1.117zm11.467 8.305c.909 0 1.662-.265 2.26-.794.599-.53.898-1.188.898-1.974v-1.015l-2.974.194c-1.613.11-2.42.711-2.42 1.805 0 .56.212.998.636 1.313.424.314.957.471 1.6.471zm-.329 1.549c-1.073 0-1.963-.296-2.67-.887-.708-.592-1.062-1.393-1.062-2.405 0-2.023 1.343-3.114 4.03-3.27l3.189-.196v-1.005c0-1.408-.834-2.112-2.502-2.112-.663 0-1.214.12-1.651.359-.438.24-.718.578-.84 1.015h-1.785c.116-.889.574-1.601 1.374-2.138.8-.536 1.788-.805 2.963-.805 1.347 0 2.384.327 3.112.98.728.652 1.092 1.553 1.092 2.701v7.568h-1.681v-1.63h-.164a3.635 3.635 0 0 1-1.415 1.353c-.588.314-1.251.472-1.99.472zm8.913-14.11h1.764v2.861h2.461v1.477h-2.46v6.254c0 .65.129 1.122.389 1.416.26.293.676.44 1.25.44.158 0 .293-.003.406-.01.113-.007.251-.017.415-.03v1.486a5.304 5.304 0 0 1-1.036.103c-1.134 0-1.95-.23-2.445-.687-.496-.458-.744-1.214-.744-2.266v-6.706h-1.784v-1.477h1.784v-2.86zm6.596 13.915v-11.054h1.764v11.054h-1.764zm.882-13.3c-.335 0-.624-.12-.867-.364a1.183 1.183 0 0 1-.364-.866c0-.342.122-.632.364-.872.243-.239.532-.359.867-.359.342 0 .632.12.871.36.24.239.36.53.36.871 0 .335-.12.624-.36.866-.239.243-.53.364-.871.364zm8.451 13.495c-1.572 0-2.814-.511-3.727-1.533-.912-1.022-1.369-2.419-1.369-4.19 0-1.776.457-3.174 1.37-4.193.912-1.019 2.154-1.528 3.726-1.528 1.573 0 2.815.51 3.728 1.528.912 1.019 1.369 2.417 1.369 4.194 0 1.77-.457 3.167-1.37 4.189-.912 1.022-2.154 1.533-3.727 1.533zm0-1.59c1.046 0 1.853-.362 2.42-1.087.568-.724.851-1.74.851-3.045 0-1.313-.283-2.33-.85-3.05-.568-.722-1.375-1.082-2.42-1.082-1.046 0-1.853.36-2.42 1.081-.568.722-.852 1.738-.852 3.05 0 1.307.284 2.322.852 3.046.567.725 1.374 1.087 2.42 1.087zm7.53 1.395v-1.118-2.763-3.292-2.763-1.118h1.68v1.743h.165a3.245 3.245 0 0 1 1.236-1.425c.543-.342 1.239-.513 2.086-.513 1.244 0 2.2.354 2.866 1.061.667.708 1 1.718 1 3.03v7.158h-1.764v-6.727c0-.998-.213-1.736-.64-2.215-.428-.478-1.082-.717-1.964-.717-.882 0-1.586.276-2.113.83-.526.554-.79 1.316-.79 2.287v6.542h-1.763zM29.169 68.196h1.866c.116.772.516 1.388 1.2 1.846.683.458 1.552.687 2.604.687.998 0 1.824-.241 2.477-.723.653-.482.979-1.089.979-1.82 0-.63-.24-1.152-.718-1.57-.478-.416-1.227-.751-2.245-1.004l-1.897-.492c-1.34-.342-2.314-.829-2.923-1.461-.608-.633-.912-1.475-.912-2.528 0-1.258.48-2.275 1.44-3.05.96-.776 2.224-1.164 3.79-1.164 1.428 0 2.624.383 3.588 1.148.964.766 1.483 1.747 1.559 2.943H38.12c-.13-.759-.49-1.352-1.082-1.779-.591-.427-1.349-.64-2.271-.64-.985 0-1.776.225-2.374.676-.598.451-.897 1.053-.897 1.805 0 .58.22 1.052.661 1.415.44.362 1.17.673 2.19.933l1.548.41c1.53.383 2.63.895 3.296 1.538.667.643 1 1.507 1 2.594 0 1.36-.497 2.442-1.492 3.246-.995.803-2.34 1.204-4.035 1.204-1.565 0-2.849-.382-3.85-1.148-1.002-.766-1.55-1.788-1.646-3.066zM46.1 70.708c.909 0 1.662-.265 2.26-.794.599-.53.898-1.188.898-1.974v-1.015l-2.974.194c-1.613.11-2.42.711-2.42 1.805 0 .56.212.998.636 1.313.424.314.957.471 1.6.471zm-.329 1.549c-1.073 0-1.963-.296-2.67-.887-.708-.592-1.062-1.393-1.062-2.405 0-2.023 1.343-3.114 4.03-3.27l3.189-.196v-1.005c0-1.408-.834-2.112-2.502-2.112-.663 0-1.214.12-1.651.359-.438.24-.718.578-.84 1.015H42.48c.116-.889.574-1.601 1.374-2.138.8-.536 1.788-.805 2.963-.805 1.347 0 2.384.327 3.112.98.728.652 1.092 1.553 1.092 2.701v7.568h-1.681v-1.63h-.164a3.635 3.635 0 0 1-1.415 1.353c-.588.314-1.251.472-1.99.472zm8.278-.195V56.619h1.763v15.443H54.05zm5.59-13.915h1.764v2.861h2.461v1.477h-2.46v6.254c0 .65.129 1.122.389 1.416.26.293.677.44 1.25.44.158 0 .293-.003.406-.01.113-.007.251-.017.415-.03v1.486a5.304 5.304 0 0 1-1.036.103c-1.134 0-1.95-.23-2.445-.687-.496-.458-.744-1.214-.744-2.266v-6.706h-1.784v-1.477h1.784v-2.86zm6.658 13.915V56.619h1.763v15.443h-1.763zm9.261-9.69c-.882 0-1.606.297-2.174.892-.567.595-.885 1.38-.953 2.358h6.09c-.02-.977-.3-1.763-.84-2.358-.54-.595-1.248-.892-2.123-.892zm2.912 6.829h1.764a3.867 3.867 0 0 1-1.62 2.24c-.814.544-1.825.816-3.035.816-1.531 0-2.745-.515-3.64-1.544-.896-1.028-1.344-2.418-1.344-4.168 0-1.736.452-3.126 1.354-4.168.902-1.043 2.112-1.564 3.63-1.564 1.49 0 2.662.498 3.517 1.492.854.995 1.282 2.35 1.282 4.066v.677h-7.947v.082c.048 1.093.357 1.962.928 2.604.57.643 1.324.964 2.26.964.712 0 1.306-.128 1.785-.385a2.418 2.418 0 0 0 1.066-1.112zm4.34 2.86V61.009h1.682v1.743h.164a3.245 3.245 0 0 1 1.235-1.425c.544-.342 1.24-.513 2.087-.513 1.244 0 2.2.354 2.866 1.061.667.708 1 1.718 1 3.03v7.158H90.08v-6.727c0-.998-.213-1.736-.64-2.215-.428-.478-1.082-.717-1.964-.717-.882 0-1.586.276-2.113.83-.526.554-.79 1.316-.79 2.287v6.542h-1.763zm16.009.196c-1.415 0-2.543-.52-3.384-1.559-.84-1.04-1.261-2.427-1.261-4.163 0-1.736.424-3.124 1.271-4.163.848-1.04 1.972-1.559 3.374-1.559.772 0 1.464.171 2.076.513a3.384 3.384 0 0 1 1.39 1.425h.154V56.62h1.763v15.443h-1.681v-1.764h-.165a3.712 3.712 0 0 1-1.456 1.44 4.217 4.217 0 0 1-2.081.519zm.41-9.854c-1.005 0-1.794.367-2.369 1.102-.574.735-.861 1.745-.861 3.03 0 1.292.285 2.304.856 3.035.571.731 1.362 1.097 2.374 1.097 1.005 0 1.798-.369 2.379-1.107s.872-1.747.872-3.025c0-1.265-.293-2.27-.877-3.015-.585-.745-1.376-1.117-2.374-1.117zm8.103 9.659V61.008h1.764v11.054h-1.764zm.882-13.3c-.335 0-.624-.12-.867-.364a1.183 1.183 0 0 1-.364-.866c0-.342.122-.632.364-.872.243-.239.532-.359.867-.359.342 0 .632.12.871.36.24.239.36.53.36.871 0 .335-.12.624-.36.866-.239.243-.53.364-.871.364zm3.909 13.3V61.008h1.682v1.743h.164a3.245 3.245 0 0 1 1.235-1.425c.544-.342 1.24-.513 2.087-.513 1.244 0 2.2.354 2.866 1.061.666.708 1 1.718 1 3.03v7.158h-1.764v-6.727c0-.998-.214-1.736-.64-2.215-.428-.478-1.083-.717-1.965-.717-.881 0-1.585.276-2.112.83-.526.554-.79 1.316-.79 2.287v6.542h-1.763zm16.388-1.723c1.025 0 1.829-.36 2.41-1.082.58-.72.871-1.683.871-2.886s-.292-2.165-.876-2.887c-.585-.72-1.386-1.081-2.405-1.081-1.025 0-1.815.36-2.369 1.081-.553.722-.83 1.684-.83 2.887s.277 2.165.83 2.886c.554.721 1.344 1.082 2.37 1.082zm.082 5.968c-1.333 0-2.404-.275-3.214-.826-.81-.55-1.284-1.283-1.42-2.199h1.866c.095.451.382.812.86 1.082.48.27 1.115.405 1.908.405.991 0 1.765-.23 2.323-.692.557-.462.835-1.1.835-1.913V69.99h-.164a3.646 3.646 0 0 1-1.425 1.41c-.602.332-1.282.498-2.04.498-1.43 0-2.559-.508-3.39-1.523-.83-1.015-1.245-2.35-1.245-4.004 0-1.654.417-2.994 1.25-4.02.835-1.025 1.963-1.538 3.384-1.538.773 0 1.479.176 2.118.528.639.352 1.116.826 1.43 1.42h.164v-1.753h1.682v11.249c0 1.237-.443 2.221-1.328 2.953-.885.731-2.083 1.097-3.594 1.097zm9.364-4.143c-.362 0-.675-.131-.938-.394a1.282 1.282 0 0 1-.395-.939c0-.369.132-.683.395-.943.263-.26.576-.39.938-.39.37 0 .684.13.944.39.26.26.39.574.39.943 0 .363-.13.675-.39.939-.26.263-.575.394-.944.394zm13.179-7.772h-1.784c-.144-.547-.457-1.015-.938-1.405-.482-.39-1.12-.584-1.913-.584-.991 0-1.779.369-2.363 1.107-.585.738-.877 1.733-.877 2.984 0 1.278.294 2.293.882 3.045.588.752 1.374 1.128 2.358 1.128.745 0 1.366-.167 1.861-.502.496-.335.826-.814.99-1.436h1.784c-.157 1.012-.636 1.853-1.436 2.523-.8.67-1.862 1.005-3.189 1.005-1.544 0-2.777-.522-3.696-1.564-.92-1.043-1.38-2.442-1.38-4.2 0-1.722.459-3.1 1.375-4.131.916-1.033 2.146-1.549 3.691-1.549 1.347 0 2.418.35 3.215 1.051.796.7 1.27 1.543 1.42 2.528zm6.81 7.865c-1.571 0-2.814-.511-3.726-1.533-.913-1.022-1.37-2.419-1.37-4.19 0-1.776.457-3.174 1.37-4.193.912-1.019 2.155-1.528 3.727-1.528s2.815.51 3.727 1.528c.913 1.019 1.37 2.417 1.37 4.194 0 1.77-.457 3.167-1.37 4.189-.912 1.022-2.155 1.533-3.727 1.533zm0-1.59c1.047 0 1.853-.362 2.42-1.087.568-.724.852-1.74.852-3.045 0-1.313-.284-2.33-.851-3.05-.568-.722-1.374-1.082-2.42-1.082-1.046 0-1.853.36-2.42 1.081-.567.722-.851 1.738-.851 3.05 0 1.307.284 2.322.851 3.046.567.725 1.374 1.087 2.42 1.087zm7.53 1.395v-1.118-2.763-3.292-2.763-1.118h1.681v1.743h.164a2.993 2.993 0 0 1 1.18-1.43c.533-.339 1.169-.508 1.907-.508.752 0 1.386.18 1.902.539.516.358.9.825 1.153 1.4h.165c.3-.589.748-1.059 1.343-1.41.595-.353 1.275-.529 2.04-.529 1.128 0 1.996.311 2.605.933.608.622.912 1.514.912 2.677v7.639h-1.763v-7.23c0-.813-.193-1.421-.58-1.824-.386-.404-.969-.605-1.748-.605-.766 0-1.384.25-1.856.748a2.533 2.533 0 0 0-.707 1.805v7.106h-1.764v-7.506c0-.656-.21-1.18-.63-1.569-.421-.39-.98-.584-1.677-.584-.725 0-1.333.273-1.825.82-.493.547-.739 1.21-.739 1.99v6.849h-1.763z"/>
            </g>
            <g fill="#8E8E93" mask="url(#c)">
                <path d="M464.64 33.2V22.154h-.142l-.494.355c-.328.237-.707.513-1.137.827-.43.314-.809.59-1.138.826l-.493.356v-1.689l.516-.369c.343-.245.74-.531 1.19-.857.45-.326.848-.612 1.191-.858l.516-.369h1.59V33.2h-1.6zm8.866.169c-1.226 0-2.204-.45-2.932-1.35-.73-.901-1.093-2.104-1.093-3.609s.367-2.707 1.102-3.608c.734-.9 1.709-1.35 2.923-1.35.67 0 1.27.147 1.8.444.53.296.931.708 1.204 1.235h.133v-5.314h1.529V33.2h-1.458v-1.529h-.142c-.302.534-.723.95-1.262 1.25-.539.298-1.14.448-1.804.448zm.356-8.54c-.871 0-1.555.318-2.053.955s-.747 1.512-.747 2.626c0 1.12.248 1.997.742 2.63.495.634 1.18.951 2.058.951.87 0 1.558-.32 2.061-.96.504-.64.756-1.513.756-2.62 0-1.097-.253-1.968-.76-2.614-.507-.645-1.192-.968-2.057-.968z"/>
            </g>
        </g>
        <path fill="#8E8E93" d="M89.371 47.16v1.44h-7.945V35.776h7.945v1.44h-6.345v4.115h6.016v1.422h-6.016v4.407h6.345zm15.425 1.44h-1.493v-9.793h-.107l-4.043 9.704h-1.351l-4.044-9.704h-.106V48.6h-1.493V35.776h1.857l4.39 10.611h.142l4.39-10.61h1.858V48.6zm11.497 0l-.196-.555-.449-1.28-.448-1.28-.196-.555h-5.1l-1.29 3.67h-1.68l4.729-12.824h1.581l4.728 12.824h-1.68zm-3.91-10.753l-.205.578c-.136.385-.304.862-.502 1.43l-.595 1.707c-.199.568-.366 1.045-.503 1.43l-.204.578h4.16l-2.01-5.723h-.142zM121.71 48.6h-1.6V35.776h1.6V48.6zm10.946-1.44v1.44h-7.785V35.776h1.6V47.16h6.185z"/>
        <path fill="#6997EC" d="M49.816 28h12.368c2.718 0 3.703.283 4.697.814a5.54 5.54 0 0 1 2.305 2.305c.531.994.814 1.979.814 4.697v12.368c0 2.718-.283 3.703-.814 4.697a5.54 5.54 0 0 1-2.305 2.305c-.994.531-1.979.814-4.697.814H49.816c-2.718 0-3.703-.283-4.697-.814a5.54 5.54 0 0 1-2.305-2.305c-.531-.994-.814-1.979-.814-4.697V35.816c0-2.718.283-3.703.814-4.697a5.54 5.54 0 0 1 2.305-2.305c.994-.531 1.979-.814 4.697-.814z"/>
        <path fill="#FFF" d="M53.06 41.895l1.32 1.251.432.413c.656.626 1.72.626 2.376 0l.437-.408 1.315-1.256 5.078 4.843H47.982l5.078-4.843zM47.897 36.4h16.206l-6.213 5.93-1 .951c-.491.47-1.289.47-1.78 0l-1-.954-6.213-5.927zm16.503.283v9.857l-5.163-4.928 5.163-4.929zm-16.8 0l5.163 4.929L47.6 46.54v-9.857z"/>
    </g>
</svg>
