<svg xmlns="http://www.w3.org/2000/svg" xmlns:xlink="http://www.w3.org/1999/xlink" width="530" height="175" viewBox="0 0 530 175">
    <defs>
        <path id="a" d="M0 18.203C0 8.15 8.15 0 18.203 0h466.194C494.45 0 502.6 8.148 502.6 18.203v110.994c0 10.053-8.15 18.203-18.206 18.203H18.197C8.147 147.4 0 139.252 0 129.197V18.203z"/>
        <filter id="b" width="108.4%" height="128.5%" x="-4.2%" y="-14.2%" filterUnits="objectBoundingBox">
            <feOffset in="SourceAlpha" result="shadowOffsetOuter1"/>
            <feGaussianBlur in="shadowOffsetOuter1" result="shadowBlurOuter1" stdDeviation="7"/>
            <feColorMatrix in="shadowBlurOuter1" values="0 0 0 0 0 0 0 0 0 0 0 0 0 0 0 0 0 0 0.1 0"/>
        </filter>
    </defs>
    <g fill="none" fill-rule="evenodd">
        <g transform="translate(14 14)">
            <mask id="c" fill="#fff">
                <use xlink:href="#a"/>
            </mask>
            <g fill-rule="nonzero">
                <use fill="#000" filter="url(#b)" xlink:href="#a"/>
                <use fill="#FFF" xlink:href="#a"/>
            </g>
            <g fill="#000" mask="url(#c)">
                <path d="M35.803 102.462h-1.845v-6.368l-5.25-8.429h2.102l3.988 6.573h.164l3.99-6.573h2.101l-5.25 8.43v6.367zm10.092.195c-1.572 0-2.814-.511-3.727-1.533-.912-1.022-1.369-2.419-1.369-4.19 0-1.776.457-3.174 1.37-4.193.912-1.019 2.154-1.528 3.726-1.528 1.573 0 2.815.51 3.728 1.528.912 1.019 1.369 2.417 1.369 4.194 0 1.77-.457 3.167-1.37 4.189-.912 1.022-2.154 1.533-3.727 1.533zm0-1.59c1.046 0 1.853-.362 2.42-1.087.568-.724.851-1.74.851-3.045 0-1.313-.283-2.33-.85-3.05-.568-.722-1.375-1.082-2.42-1.082-1.046 0-1.853.36-2.42 1.081-.568.722-.852 1.738-.852 3.05 0 1.307.284 2.322.852 3.046.567.725 1.374 1.087 2.42 1.087zm16.47-9.659v11.054h-1.681v-1.733h-.164c-.274.615-.7 1.09-1.282 1.425-.58.335-1.295.503-2.143.503-1.237 0-2.175-.356-2.815-1.067-.639-.71-.958-1.72-.958-3.025v-7.157h1.763v6.727c0 .99.197 1.724.59 2.2.393.474 1.03.712 1.912.712.978 0 1.725-.274 2.24-.82.517-.547.775-1.306.775-2.277v-6.542h1.764zm2.987 11.054V91.408h1.682v1.64h.164c.164-.54.533-.98 1.107-1.322.574-.342 1.227-.513 1.958-.513a7.668 7.668 0 0 1 .882.051v1.764a3.32 3.32 0 0 0-.482-.067 7.025 7.025 0 0 0-.646-.035c-.84 0-1.534.253-2.081.758-.547.506-.82 1.149-.82 1.928v6.85h-1.764zm17.344.195c-1.415 0-2.543-.52-3.384-1.559-.84-1.04-1.261-2.427-1.261-4.163 0-1.736.424-3.124 1.271-4.163.848-1.04 1.973-1.559 3.374-1.559.772 0 1.465.171 2.076.513a3.384 3.384 0 0 1 1.39 1.425h.154V87.02h1.763v15.443h-1.681v-1.764h-.164a3.712 3.712 0 0 1-1.456 1.44 4.217 4.217 0 0 1-2.082.519zm.41-9.854c-1.005 0-1.794.367-2.369 1.102-.574.735-.86 1.745-.86 3.03 0 1.292.285 2.304.855 3.035.571.731 1.362 1.097 2.374 1.097 1.005 0 1.798-.369 2.379-1.107s.872-1.747.872-3.025c0-1.265-.293-2.27-.877-3.015-.585-.745-1.376-1.117-2.374-1.117zm12.471-.031c-.882 0-1.606.297-2.174.892-.567.595-.885 1.38-.953 2.358h6.09c-.02-.977-.3-1.763-.84-2.358-.54-.595-1.248-.892-2.123-.892zM98.49 99.6h1.764a3.867 3.867 0 0 1-1.62 2.24c-.814.544-1.825.816-3.035.816-1.531 0-2.745-.515-3.64-1.544-.896-1.028-1.344-2.418-1.344-4.168 0-1.736.452-3.126 1.354-4.168.902-1.043 2.112-1.564 3.63-1.564 1.49 0 2.662.498 3.517 1.492.854.995 1.282 2.35 1.282 4.066v.677H92.45v.082c.048 1.093.357 1.962.928 2.604.57.643 1.324.964 2.26.964.712 0 1.306-.128 1.785-.385a2.418 2.418 0 0 0 1.066-1.112zm9.723-8.388c1.409 0 2.535.52 3.38 1.559.843 1.039 1.265 2.427 1.265 4.163 0 1.73-.422 3.115-1.266 4.158-.844 1.042-1.97 1.564-3.379 1.564-.786 0-1.483-.164-2.091-.493a3.202 3.202 0 0 1-1.364-1.363h-.164v5.352h-1.764V91.408h1.682v1.846h.164a3.895 3.895 0 0 1 1.471-1.497 4.048 4.048 0 0 1 2.066-.544zm-.42 9.854c1.019 0 1.813-.366 2.384-1.097.57-.731.856-1.743.856-3.035s-.285-2.304-.856-3.035c-.57-.732-1.362-1.097-2.374-1.097-.998 0-1.79.37-2.379 1.112-.588.742-.881 1.748-.881 3.02 0 1.265.293 2.27.881 3.015.588.745 1.378 1.117 2.369 1.117zm12.04 1.59c-1.572 0-2.814-.511-3.727-1.533-.912-1.022-1.369-2.419-1.369-4.19 0-1.776.457-3.174 1.37-4.193.912-1.019 2.154-1.528 3.727-1.528 1.572 0 2.814.51 3.727 1.528.912 1.019 1.369 2.417 1.369 4.194 0 1.77-.457 3.167-1.37 4.189-.912 1.022-2.154 1.533-3.726 1.533zm0-1.59c1.046 0 1.853-.362 2.42-1.087.568-.724.852-1.74.852-3.045 0-1.313-.284-2.33-.852-3.05-.567-.722-1.374-1.082-2.42-1.082-1.045 0-1.852.36-2.42 1.081-.567.722-.85 1.738-.85 3.05 0 1.307.283 2.322.85 3.046.568.725 1.375 1.087 2.42 1.087zm7.273-6.634c0-.916.393-1.682 1.18-2.297.785-.615 1.766-.923 2.942-.923 1.162 0 2.117.267 2.866.8.748.533 1.18 1.254 1.297 2.164h-1.743c-.116-.445-.383-.8-.8-1.067-.417-.266-.96-.4-1.63-.4-.657 0-1.21.152-1.661.457-.452.304-.677.702-.677 1.194 0 .376.157.689.472.938.314.25.796.453 1.445.61l1.702.41c1.04.254 1.814.618 2.323 1.093.51.475.764 1.109.764 1.902 0 .991-.424 1.796-1.272 2.415-.847.618-1.9.928-3.158.928-1.23 0-2.239-.274-3.025-.82-.786-.548-1.227-1.28-1.322-2.195h1.814c.15.465.445.836.882 1.112.438.277 1.009.416 1.713.416.745 0 1.357-.16 1.835-.482.479-.321.718-.735.718-1.24 0-.384-.145-.703-.436-.96-.29-.256-.73-.456-1.317-.6l-1.897-.46c-1.033-.254-1.793-.616-2.282-1.088-.489-.472-.733-1.107-.733-1.907zm10.953 8.029V91.408h1.764v11.054h-1.764zm.882-13.3c-.335 0-.623-.12-.866-.364a1.183 1.183 0 0 1-.364-.866c0-.342.121-.632.364-.872.243-.239.531-.359.866-.359.342 0 .633.12.872.36.24.239.359.53.359.871 0 .335-.12.624-.36.866-.238.243-.529.364-.87.364zm4.648-.615h1.763v2.861h2.461v1.477h-2.46v6.254c0 .65.13 1.122.389 1.416.26.293.677.44 1.251.44.157 0 .292-.003.405-.01.113-.007.251-.017.415-.03v1.486a5.304 5.304 0 0 1-1.035.103c-1.135 0-1.95-.23-2.446-.687-.496-.458-.743-1.214-.743-2.266v-6.706h-1.784v-1.477h1.784v-2.86zm16.688 14.11c-1.573 0-2.815-.511-3.728-1.533-.912-1.022-1.369-2.419-1.369-4.19 0-1.776.457-3.174 1.37-4.193.912-1.019 2.154-1.528 3.727-1.528 1.572 0 2.814.51 3.727 1.528.912 1.019 1.369 2.417 1.369 4.194 0 1.77-.457 3.167-1.37 4.189-.912 1.022-2.154 1.533-3.726 1.533zm0-1.59c1.045 0 1.852-.362 2.42-1.087.567-.724.85-1.74.85-3.045 0-1.313-.283-2.33-.85-3.05-.568-.722-1.375-1.082-2.42-1.082-1.046 0-1.853.36-2.42 1.081-.568.722-.851 1.738-.851 3.05 0 1.307.283 2.322.85 3.046.568.725 1.375 1.087 2.42 1.087zm8.267 1.395v-9.577h-1.836v-1.477h1.836v-1.23c0-1.101.271-1.92.815-2.456.543-.537 1.341-.805 2.394-.805.219 0 .426.008.62.025.195.018.385.043.57.077v1.436a2.803 2.803 0 0 0-.38-.041 9.498 9.498 0 0 0-.451-.01c-.636 0-1.096.152-1.38.456-.283.304-.425.76-.425 1.369v1.179h2.533v1.477h-2.533v9.577h-1.763zm12.012-10.623c0-1.32.456-2.403 1.369-3.25.912-.848 2.076-1.272 3.491-1.272 1.292 0 2.375.391 3.25 1.174.876.783 1.313 1.775 1.313 2.979 0 .847-.234 1.662-.702 2.445-.469.783-1.37 1.865-2.702 3.245l-3.364 3.477v.164h7.014v1.66h-9.577v-1.27l5.004-5.415c.943-1.018 1.586-1.796 1.928-2.333.341-.536.512-1.13.512-1.779 0-.786-.248-1.439-.743-1.958-.496-.52-1.181-.78-2.056-.78-.889 0-1.603.267-2.143.8-.54.534-.81 1.238-.81 2.113h-1.784zm13.599 10.725c-.363 0-.675-.131-.939-.394a1.282 1.282 0 0 1-.394-.939c0-.369.131-.683.394-.943.264-.26.576-.39.939-.39.369 0 .683.13.943.39.26.26.39.574.39.943 0 .363-.13.675-.39.939-.26.263-.574.394-.943.394zm6.923-6.921v-1.58h1.754c.854 0 1.553-.245 2.097-.737.543-.493.815-1.122.815-1.887 0-.69-.25-1.282-.749-1.774s-1.196-.738-2.091-.738c-.889 0-1.608.22-2.159.661-.55.44-.863 1.078-.938 1.912h-1.794c.095-1.203.58-2.2 1.456-2.994.875-.793 2.06-1.19 3.558-1.19 1.463 0 2.596.394 3.399 1.18.803.786 1.201 1.699 1.194 2.738-.006.888-.258 1.623-.753 2.204a3.797 3.797 0 0 1-1.882 1.2v.164c.957.15 1.728.542 2.312 1.174.585.632.877 1.465.877 2.497 0 1.237-.5 2.27-1.502 3.097-1.001.827-2.237 1.24-3.707 1.24-1.504 0-2.73-.379-3.68-1.138-.951-.759-1.46-1.767-1.529-3.025h1.784c.082.78.433 1.4 1.051 1.861.62.462 1.403.693 2.354.693.977 0 1.777-.257 2.4-.77.621-.512.932-1.182.932-2.01 0-.854-.3-1.53-.902-2.03-.602-.499-1.422-.748-2.461-.748h-1.836zm16.48 6.819v-3.066h-7.208v-1.682c.5-.84 1.012-1.69 1.538-2.548.527-.858 1.06-1.716 1.6-2.574.54-.858 1.078-1.7 1.615-2.527.537-.827 1.065-1.627 1.584-2.4h2.677v10.08h2.102v1.65h-2.102v3.067h-1.805zm-5.32-4.83v.123h5.331v-8.377h-.123c-.417.622-.846 1.273-1.287 1.953-.44.68-.887 1.376-1.338 2.087-.451.71-.894 1.422-1.328 2.133-.434.71-.853 1.404-1.256 2.081zm23.342 4.83h-5.773V87.665h5.66c1.36 0 2.43.332 3.21.995.779.663 1.168 1.562 1.168 2.697 0 .765-.247 1.456-.743 2.071-.496.615-1.099.988-1.81 1.118v.164c1.012.13 1.815.518 2.41 1.164.595.646.892 1.457.892 2.435 0 1.299-.443 2.316-1.328 3.05-.885.735-2.114 1.103-3.686 1.103zm-3.927-13.166v4.747h2.953c1.12 0 1.963-.198 2.527-.594.564-.397.846-.988.846-1.774 0-.752-.254-1.337-.764-1.754-.509-.417-1.222-.625-2.138-.625h-3.424zm0 11.535h3.65c1.114 0 1.958-.222 2.533-.666.574-.444.861-1.094.861-1.948 0-.855-.3-1.5-.897-1.933-.598-.434-1.489-.651-2.671-.651h-3.476v5.198zm17.31 1.63h-1.845V89.327h-4.768v-1.66h11.382v1.66h-4.769v13.136zm12.625.35c-2.01 0-3.6-.694-4.773-2.082-1.172-1.388-1.758-3.275-1.758-5.66 0-2.393.584-4.283 1.753-5.67 1.17-1.388 2.758-2.082 4.768-2.082 1.559 0 2.892.444 4 1.333 1.107.888 1.77 2.047 1.988 3.476h-1.876c-.246-.957-.738-1.714-1.477-2.271-.738-.558-1.616-.836-2.635-.836-1.422 0-2.548.543-3.378 1.63-.831 1.087-1.246 2.56-1.246 4.42 0 1.852.417 3.322 1.25 4.409.835 1.087 1.963 1.63 3.384 1.63 1.033 0 1.916-.248 2.651-.743a3.466 3.466 0 0 0 1.451-2.025h1.876c-.246 1.36-.91 2.445-1.994 3.255-1.083.81-2.411 1.215-3.984 1.215zm14.207-.35V87.02h1.764v6.132h.164a3.17 3.17 0 0 1 1.276-1.425c.571-.342 1.28-.513 2.128-.513 1.169 0 2.097.357 2.784 1.072.687.714 1.03 1.72 1.03 3.02v7.157h-1.763v-6.727c0-.977-.217-1.71-.651-2.2-.435-.488-1.069-.732-1.903-.732-.99 0-1.75.285-2.276.856-.526.57-.79 1.324-.79 2.26v6.543h-1.763zm15.434-1.353c.91 0 1.663-.265 2.261-.794.598-.53.898-1.188.898-1.974v-1.015l-2.974.194c-1.613.11-2.42.711-2.42 1.805 0 .56.212.998.636 1.313.424.314.957.471 1.6.471zm-.328 1.549c-1.073 0-1.963-.296-2.67-.887-.708-.592-1.062-1.393-1.062-2.405 0-2.023 1.343-3.114 4.03-3.27l3.189-.196v-1.005c0-1.408-.834-2.112-2.502-2.112-.663 0-1.214.12-1.651.359-.438.24-.718.578-.841 1.015h-1.784c.116-.889.574-1.601 1.374-2.138.8-.536 1.787-.805 2.963-.805 1.347 0 2.384.327 3.112.98.728.652 1.092 1.553 1.092 2.701v7.568h-1.681v-1.63h-.164a3.635 3.635 0 0 1-1.416 1.353c-.587.314-1.25.472-1.989.472zm7.919-8.224c0-.916.393-1.682 1.179-2.297.786-.615 1.767-.923 2.943-.923 1.162 0 2.117.267 2.866.8.748.533 1.18 1.254 1.297 2.164h-1.743c-.117-.445-.383-.8-.8-1.067-.417-.266-.96-.4-1.63-.4-.657 0-1.21.152-1.662.457-.45.304-.676.702-.676 1.194 0 .376.157.689.471.938.315.25.797.453 1.446.61l1.702.41c1.04.254 1.813.618 2.323 1.093.509.475.764 1.109.764 1.902 0 .991-.424 1.796-1.272 2.415-.848.618-1.9.928-3.158.928-1.23 0-2.239-.274-3.025-.82-.786-.548-1.227-1.28-1.323-2.195h1.815c.15.465.445.836.882 1.112.438.277 1.008.416 1.712.416.746 0 1.357-.16 1.836-.482.478-.321.718-.735.718-1.24 0-.384-.146-.703-.436-.96-.29-.256-.73-.456-1.318-.6l-1.897-.46c-1.032-.254-1.792-.616-2.281-1.088-.489-.472-.733-1.107-.733-1.907zm21.999 8.224a4.246 4.246 0 0 1-2.087-.518 3.702 3.702 0 0 1-1.46-1.44h-.165v1.763h-1.682V87.019h1.764v6.132h.164c.301-.595.764-1.066 1.39-1.415a4.192 4.192 0 0 1 2.076-.523c1.408 0 2.533.52 3.374 1.559.84 1.039 1.26 2.427 1.26 4.163 0 1.73-.421 3.115-1.266 4.158-.844 1.042-1.967 1.564-3.368 1.564zm-.41-9.854c-1.005 0-1.8.369-2.384 1.107-.585.738-.877 1.747-.877 3.025 0 1.278.292 2.287.877 3.025.584.738 1.379 1.107 2.384 1.107 1.012 0 1.801-.366 2.369-1.097.567-.731.85-1.743.85-3.035s-.283-2.304-.85-3.035c-.568-.732-1.357-1.097-2.37-1.097zm11.887-.031c-.882 0-1.607.297-2.174.892-.568.595-.886 1.38-.954 2.358h6.09c-.02-.977-.3-1.763-.84-2.358-.54-.595-1.247-.892-2.122-.892zm2.912 6.829h1.763a3.867 3.867 0 0 1-1.62 2.24c-.813.544-1.825.816-3.035.816-1.531 0-2.745-.515-3.64-1.544-.896-1.028-1.343-2.418-1.343-4.168 0-1.736.45-3.126 1.353-4.168.902-1.043 2.112-1.564 3.63-1.564 1.49 0 2.663.498 3.517 1.492.855.995 1.282 2.35 1.282 4.066v.677h-7.947v.082c.048 1.093.357 1.962.928 2.604.57.643 1.325.964 2.261.964.711 0 1.306-.128 1.784-.385a2.418 2.418 0 0 0 1.067-1.112zm8.749-6.83c-.882 0-1.607.298-2.174.893-.568.595-.886 1.38-.954 2.358h6.091c-.02-.977-.3-1.763-.84-2.358-.54-.595-1.248-.892-2.123-.892zm2.912 6.83h1.763a3.867 3.867 0 0 1-1.62 2.24c-.813.544-1.825.816-3.035.816-1.531 0-2.745-.515-3.64-1.544-.896-1.028-1.343-2.418-1.343-4.168 0-1.736.45-3.126 1.353-4.168.903-1.043 2.112-1.564 3.63-1.564 1.49 0 2.663.498 3.517 1.492.855.995 1.282 2.35 1.282 4.066v.677h-7.947v.082c.048 1.093.357 1.962.928 2.604.57.643 1.325.964 2.261.964.711 0 1.306-.128 1.784-.385a2.418 2.418 0 0 0 1.067-1.112zm4.34 2.86V91.409h1.681v1.743h.164a3.245 3.245 0 0 1 1.236-1.425c.543-.342 1.239-.513 2.086-.513 1.245 0 2.2.354 2.866 1.061.667.708 1 1.718 1 3.03v7.158h-1.764v-6.727c0-.998-.213-1.736-.64-2.215-.428-.478-1.082-.717-1.964-.717-.882 0-1.586.276-2.112.83-.527.554-.79 1.316-.79 2.287v6.542h-1.764zm-312.41 17.53h-1.785c-.143-.546-.456-1.014-.938-1.404-.482-.39-1.12-.584-1.912-.584-.992 0-1.78.369-2.364 1.107-.584.738-.877 1.733-.877 2.984 0 1.278.294 2.293.882 3.045.588.752 1.374 1.128 2.359 1.128.745 0 1.365-.167 1.86-.502.496-.335.826-.814.99-1.436h1.784c-.157 1.012-.635 1.853-1.435 2.523-.8.67-1.863 1.005-3.19 1.005-1.544 0-2.776-.522-3.696-1.564-.92-1.043-1.379-2.442-1.379-4.2 0-1.722.458-3.1 1.374-4.131.916-1.033 2.147-1.549 3.692-1.549 1.346 0 2.418.35 3.214 1.051.797.7 1.27 1.543 1.42 2.528zm6.81 7.866c-1.572 0-2.814-.511-3.727-1.533-.913-1.022-1.369-2.419-1.369-4.19 0-1.776.456-3.174 1.369-4.193.913-1.019 2.155-1.528 3.727-1.528 1.573 0 2.815.51 3.728 1.528.912 1.019 1.369 2.417 1.369 4.194 0 1.77-.457 3.167-1.37 4.189-.912 1.022-2.154 1.533-3.727 1.533zm0-1.59c1.046 0 1.853-.362 2.42-1.087.568-.724.851-1.74.851-3.045 0-1.313-.283-2.33-.85-3.05-.568-.722-1.375-1.082-2.42-1.082-1.047 0-1.853.36-2.42 1.081-.568.722-.852 1.738-.852 3.05 0 1.307.284 2.322.851 3.046.568.725 1.374 1.087 2.42 1.087zm7.53 1.395v-11.054h1.68v1.743h.165a2.993 2.993 0 0 1 1.179-1.43c.533-.339 1.169-.508 1.907-.508.752 0 1.386.18 1.902.539.516.358.9.825 1.154 1.4h.164c.3-.589.748-1.059 1.343-1.41.595-.353 1.275-.529 2.04-.529 1.129 0 1.997.311 2.605.933.609.622.913 1.514.913 2.677v7.639h-1.764v-7.23c0-.813-.193-1.421-.58-1.824-.385-.404-.968-.605-1.747-.605-.766 0-1.385.25-1.856.748a2.533 2.533 0 0 0-.708 1.805v7.106h-1.764v-7.506c0-.656-.21-1.18-.63-1.569-.42-.39-.98-.584-1.677-.584-.724 0-1.333.273-1.825.82-.492.547-.738 1.21-.738 1.99v6.849h-1.764zm23.319-11.249c1.408 0 2.534.52 3.379 1.559.844 1.039 1.266 2.427 1.266 4.163 0 1.73-.422 3.115-1.266 4.158-.845 1.042-1.97 1.564-3.38 1.564-.785 0-1.483-.164-2.091-.493a3.202 3.202 0 0 1-1.364-1.363h-.164v5.352h-1.763v-14.745h1.681v1.846h.164a3.895 3.895 0 0 1 1.472-1.497 4.048 4.048 0 0 1 2.066-.544zm-.42 9.854c1.018 0 1.813-.366 2.383-1.097.571-.731.857-1.743.857-3.035s-.286-2.304-.857-3.035c-.57-.732-1.362-1.097-2.373-1.097-.998 0-1.791.37-2.38 1.112-.587.742-.881 1.748-.881 3.02 0 1.265.294 2.27.882 3.015.588.745 1.377 1.117 2.368 1.117zm7.6 1.395v-15.443h1.764v15.443h-1.764zm9.262-9.69c-.882 0-1.607.297-2.174.892-.568.595-.885 1.38-.954 2.358h6.091c-.02-.977-.3-1.763-.84-2.358-.54-.595-1.248-.892-2.123-.892zm2.912 6.829h1.763a3.867 3.867 0 0 1-1.62 2.24c-.813.544-1.825.816-3.035.816-1.531 0-2.745-.515-3.64-1.544-.896-1.028-1.343-2.418-1.343-4.168 0-1.736.45-3.126 1.353-4.168.903-1.043 2.113-1.564 3.63-1.564 1.49 0 2.663.498 3.517 1.492.855.995 1.282 2.35 1.282 4.066v.677H89.77v.082c.048 1.093.357 1.962.928 2.604.571.643 1.325.964 2.261.964.711 0 1.306-.128 1.784-.385a2.418 2.418 0 0 0 1.067-1.112zm5.078-11.054h1.763v2.861h2.461v1.477h-2.46v6.254c0 .65.13 1.122.39 1.416.259.293.676.44 1.25.44.157 0 .292-.003.405-.01.113-.007.251-.017.415-.03v1.486a5.304 5.304 0 0 1-1.035.103c-1.135 0-1.95-.23-2.446-.687-.495-.458-.743-1.214-.743-2.266v-6.706h-1.784v-1.477h1.784v-2.86zm10.81 4.225c-.882 0-1.607.297-2.174.892s-.885 1.38-.954 2.358h6.091c-.02-.977-.3-1.763-.84-2.358-.54-.595-1.248-.892-2.123-.892zm2.912 6.829h1.764a3.867 3.867 0 0 1-1.62 2.24c-.814.544-1.826.816-3.036.816-1.531 0-2.744-.515-3.64-1.544-.895-1.028-1.343-2.418-1.343-4.168 0-1.736.451-3.126 1.353-4.168.903-1.043 2.113-1.564 3.63-1.564 1.49 0 2.663.498 3.517 1.492.855.995 1.282 2.35 1.282 4.066v.677h-7.947v.082c.048 1.093.358 1.962.928 2.604.571.643 1.325.964 2.261.964.711 0 1.306-.128 1.784-.385a2.418 2.418 0 0 0 1.067-1.112zm8.431 3.056c-1.415 0-2.543-.52-3.384-1.559-.84-1.04-1.261-2.427-1.261-4.163 0-1.736.424-3.124 1.271-4.163.848-1.04 1.973-1.559 3.374-1.559.772 0 1.465.171 2.076.513a3.384 3.384 0 0 1 1.39 1.425h.154v-6.132h1.763v15.443h-1.681v-1.764h-.164a3.712 3.712 0 0 1-1.456 1.44 4.217 4.217 0 0 1-2.082.519zm.41-9.854c-1.005 0-1.794.367-2.369 1.102-.574.735-.86 1.745-.86 3.03 0 1.292.285 2.304.855 3.035.571.731 1.362 1.097 2.374 1.097 1.005 0 1.798-.369 2.379-1.107s.872-1.747.872-3.025c0-1.265-.293-2.27-.877-3.015-.585-.745-1.376-1.117-2.374-1.117zm9.518 9.761c-.362 0-.675-.131-.938-.394a1.282 1.282 0 0 1-.395-.939c0-.369.132-.683.395-.943.263-.26.576-.39.938-.39.37 0 .684.13.943.39.26.26.39.574.39.943 0 .363-.13.675-.39.939-.26.263-.574.394-.943.394zm16.36-.102h-1.825l-5.455-14.797h1.938l4.347 12.408h.164l4.348-12.408h1.938l-5.455 14.797zm7.529 0v-11.054h1.763v11.054h-1.763zm.881-13.3c-.335 0-.623-.12-.866-.364a1.183 1.183 0 0 1-.364-.866c0-.342.121-.632.364-.872.243-.239.531-.359.866-.359.342 0 .633.12.872.36.24.239.359.53.359.871 0 .335-.12.624-.359.866-.24.243-.53.364-.872.364zm3.653 5.27c0-.915.393-1.68 1.18-2.296.786-.615 1.767-.923 2.942-.923 1.162 0 2.118.267 2.866.8.749.533 1.181 1.254 1.297 2.164h-1.743c-.116-.445-.383-.8-.8-1.067-.417-.266-.96-.4-1.63-.4-.656 0-1.21.152-1.661.457-.451.304-.677.702-.677 1.194 0 .376.157.689.472.938.314.25.796.453 1.446.61l1.702.41c1.039.254 1.813.618 2.322 1.093.51.475.764 1.109.764 1.902 0 .991-.424 1.796-1.271 2.415-.848.618-1.9.928-3.158.928-1.231 0-2.24-.274-3.025-.82-.787-.548-1.227-1.28-1.323-2.195h1.815c.15.465.444.836.882 1.112.437.277 1.008.416 1.712.416.745 0 1.357-.16 1.835-.482.479-.321.718-.735.718-1.24 0-.384-.145-.703-.436-.96-.29-.256-.73-.456-1.317-.6l-1.897-.46c-1.032-.254-1.793-.616-2.282-1.088-.488-.472-.733-1.107-.733-1.907zm10.954 8.03v-11.054h1.763v11.054h-1.763zm.882-13.3c-.335 0-.624-.12-.867-.364a1.183 1.183 0 0 1-.364-.866c0-.342.121-.632.364-.872.243-.239.532-.359.867-.359.341 0 .632.12.871.36.24.239.36.53.36.871 0 .335-.12.624-.36.866-.24.243-.53.364-.871.364zm4.647-.615h1.764v2.861h2.46v1.477h-2.46v6.254c0 .65.13 1.122.39 1.416.26.293.676.44 1.25.44.158 0 .293-.003.405-.01.113-.007.252-.017.416-.03v1.486a5.304 5.304 0 0 1-1.036.103c-1.135 0-1.95-.23-2.446-.687-.495-.458-.743-1.214-.743-2.266v-6.706h-1.784v-1.477h1.784v-2.86zm13.089 17.914c-.075 0-.16-.002-.251-.005a3.77 3.77 0 0 1-.539-.057v-1.507c.11.02.23.034.36.04.129.008.255.011.378.011.506 0 .913-.135 1.22-.405.308-.27.578-.74.81-1.41l.206-.656-4.091-11.064h1.907l3.035 9.095h.164l3.025-9.095h1.876l-4.317 11.73c-.471 1.286-.975 2.16-1.512 2.626-.537.464-1.294.697-2.271.697zm14.255-3.804c-1.572 0-2.815-.511-3.727-1.533-.913-1.022-1.37-2.419-1.37-4.19 0-1.776.457-3.174 1.37-4.193.912-1.019 2.155-1.528 3.727-1.528s2.815.51 3.727 1.528c.913 1.019 1.37 2.417 1.37 4.194 0 1.77-.457 3.167-1.37 4.189-.912 1.022-2.155 1.533-3.727 1.533zm0-1.59c1.046 0 1.853-.362 2.42-1.087.567-.724.851-1.74.851-3.045 0-1.313-.284-2.33-.851-3.05-.567-.722-1.374-1.082-2.42-1.082-1.046 0-1.852.36-2.42 1.081-.567.722-.85 1.738-.85 3.05 0 1.307.283 2.322.85 3.046.568.725 1.374 1.087 2.42 1.087zm16.47-9.659v11.054h-1.681v-1.733h-.164c-.274.615-.701 1.09-1.282 1.425-.581.335-1.296.503-2.143.503-1.238 0-2.176-.356-2.815-1.067-.64-.71-.959-1.72-.959-3.025v-7.157h1.764v6.727c0 .99.196 1.724.59 2.2.393.474 1.03.712 1.912.712.977 0 1.724-.274 2.24-.82.516-.547.775-1.306.775-2.277v-6.542h1.763zm2.986 11.054v-11.054h1.682v1.64h.164c.164-.54.533-.98 1.108-1.322.574-.342 1.227-.513 1.958-.513a7.668 7.668 0 0 1 .882.051v1.764a3.32 3.32 0 0 0-.482-.067 7.025 7.025 0 0 0-.646-.035c-.84 0-1.535.253-2.082.758-.546.506-.82 1.149-.82 1.928v6.85h-1.764zm27.158-11.054l-.313 1.118-.774 2.763-.923 3.292-.774 2.763-.313 1.118h-1.795l-2.47-8.552h-.165l-2.46 8.552h-1.785l-3.097-11.054h1.785l2.173 8.839h.164l2.472-8.839h1.692l2.47 8.839h.165l2.174-8.839h1.774zm5.119 9.7c.909 0 1.662-.265 2.26-.794.599-.53.898-1.188.898-1.974v-1.015l-2.974.194c-1.613.11-2.42.711-2.42 1.805 0 .56.212.998.636 1.313.424.314.957.471 1.6.471zm-.328 1.549c-1.074 0-1.964-.296-2.672-.887-.707-.592-1.06-1.393-1.06-2.405 0-2.023 1.342-3.114 4.029-3.27l3.189-.196v-1.005c0-1.408-.834-2.112-2.502-2.112-.663 0-1.213.12-1.651.359-.437.24-.718.578-.84 1.015h-1.785c.116-.889.574-1.601 1.374-2.138.8-.536 1.788-.805 2.963-.805 1.347 0 2.384.327 3.112.98.729.652 1.093 1.553 1.093 2.701v7.568h-1.682v-1.63h-.164a3.635 3.635 0 0 1-1.415 1.353c-.588.314-1.251.472-1.99.472zm8.277-.195v-15.443h1.763v15.443h-1.763zm4.955 0v-15.443h1.764v15.443h-1.764zm9.261-9.69c-.881 0-1.606.297-2.173.892-.568.595-.886 1.38-.954 2.358h6.09c-.02-.977-.3-1.763-.84-2.358-.54-.595-1.248-.892-2.123-.892zm2.913 6.829h1.763a3.867 3.867 0 0 1-1.62 2.24c-.813.544-1.825.816-3.035.816-1.531 0-2.745-.515-3.64-1.544-.896-1.028-1.343-2.418-1.343-4.168 0-1.736.45-3.126 1.353-4.168.902-1.043 2.112-1.564 3.63-1.564 1.49 0 2.663.498 3.517 1.492.855.995 1.282 2.35 1.282 4.066v.677h-7.947v.082c.048 1.093.357 1.962.928 2.604.57.643 1.324.964 2.261.964.711 0 1.306-.128 1.784-.385a2.418 2.418 0 0 0 1.067-1.112zm5.078-11.054h1.763v2.861h2.461v1.477h-2.46v6.254c0 .65.13 1.122.389 1.416.26.293.677.44 1.251.44.157 0 .292-.003.405-.01.113-.007.251-.017.415-.03v1.486a5.304 5.304 0 0 1-1.035.103c-1.135 0-1.95-.23-2.446-.687-.496-.458-.743-1.214-.743-2.266v-6.706h-1.785v-1.477h1.785v-2.86zm12.883 13.915v-9.577h-1.835v-1.477h1.835v-1.23c0-1.101.272-1.92.816-2.456.543-.537 1.341-.805 2.394-.805.219 0 .425.008.62.025.195.018.385.043.57.077v1.436a2.803 2.803 0 0 0-.38-.041 9.498 9.498 0 0 0-.451-.01c-.636 0-1.096.152-1.38.456-.283.304-.425.76-.425 1.369v1.179h2.533v1.477h-2.533v9.577h-1.764zm10.605.195c-1.572 0-2.814-.511-3.727-1.533-.913-1.022-1.369-2.419-1.369-4.19 0-1.776.456-3.174 1.369-4.193.913-1.019 2.155-1.528 3.727-1.528 1.573 0 2.815.51 3.728 1.528.912 1.019 1.368 2.417 1.368 4.194 0 1.77-.456 3.167-1.368 4.189-.913 1.022-2.155 1.533-3.728 1.533zm0-1.59c1.046 0 1.853-.362 2.42-1.087.568-.724.851-1.74.851-3.045 0-1.313-.283-2.33-.85-3.05-.568-.722-1.375-1.082-2.42-1.082-1.047 0-1.853.36-2.42 1.081-.568.722-.852 1.738-.852 3.05 0 1.307.284 2.322.851 3.046.568.725 1.374 1.087 2.42 1.087zm7.529 1.395v-11.054h1.682v1.64h.164c.164-.54.533-.98 1.107-1.322.574-.342 1.227-.513 1.959-.513a7.668 7.668 0 0 1 .881.051v1.764a3.32 3.32 0 0 0-.481-.067 7.025 7.025 0 0 0-.646-.035c-.841 0-1.535.253-2.082.758-.547.506-.82 1.149-.82 1.928v6.85h-1.764zm13.253 0v-11.054h1.681v1.743h.164a2.993 2.993 0 0 1 1.18-1.43c.533-.339 1.169-.508 1.907-.508.752 0 1.386.18 1.902.539.516.358.9.825 1.154 1.4h.164c.3-.589.748-1.059 1.343-1.41.595-.353 1.275-.529 2.04-.529 1.128 0 1.997.311 2.605.933.608.622.913 1.514.913 2.677v7.639h-1.764v-7.23c0-.813-.193-1.421-.58-1.824-.386-.404-.968-.605-1.748-.605-.765 0-1.384.25-1.856.748a2.533 2.533 0 0 0-.707 1.805v7.106h-1.764v-7.506c0-.656-.21-1.18-.63-1.569-.421-.39-.98-.584-1.677-.584-.725 0-1.333.273-1.825.82-.492.547-.739 1.21-.739 1.99v6.849h-1.763zm22.479.195c-1.573 0-2.815-.511-3.728-1.533-.912-1.022-1.368-2.419-1.368-4.19 0-1.776.456-3.174 1.368-4.193.913-1.019 2.155-1.528 3.728-1.528 1.572 0 2.814.51 3.727 1.528.913 1.019 1.369 2.417 1.369 4.194 0 1.77-.456 3.167-1.369 4.189-.913 1.022-2.155 1.533-3.727 1.533zm0-1.59c1.046 0 1.852-.362 2.42-1.087.567-.724.85-1.74.85-3.045 0-1.313-.283-2.33-.85-3.05-.568-.722-1.374-1.082-2.42-1.082-1.046 0-1.853.36-2.42 1.081-.568.722-.851 1.738-.851 3.05 0 1.307.283 2.322.85 3.046.568.725 1.375 1.087 2.42 1.087zm7.528 1.395v-11.054h1.682v1.64h.164c.164-.54.533-.98 1.108-1.322.574-.342 1.227-.513 1.958-.513a7.668 7.668 0 0 1 .882.051v1.764a3.32 3.32 0 0 0-.482-.067 7.025 7.025 0 0 0-.646-.035c-.84 0-1.535.253-2.082.758-.546.506-.82 1.149-.82 1.928v6.85h-1.764zm11.764-9.69c-.882 0-1.606.297-2.174.892-.567.595-.885 1.38-.953 2.358h6.09c-.02-.977-.3-1.763-.84-2.358-.54-.595-1.248-.892-2.123-.892zm2.912 6.829h1.764a3.867 3.867 0 0 1-1.62 2.24c-.814.544-1.825.816-3.035.816-1.532 0-2.745-.515-3.64-1.544-.896-1.028-1.344-2.418-1.344-4.168 0-1.736.451-3.126 1.354-4.168.902-1.043 2.112-1.564 3.63-1.564 1.49 0 2.662.498 3.517 1.492.854.995 1.281 2.35 1.281 4.066v.677h-7.946v.082c.047 1.093.357 1.962.928 2.604.57.643 1.324.964 2.26.964.712 0 1.306-.128 1.785-.385a2.418 2.418 0 0 0 1.066-1.112zm14.022 3.056c-1.415 0-2.543-.52-3.384-1.559-.84-1.04-1.261-2.427-1.261-4.163 0-1.736.424-3.124 1.272-4.163.847-1.04 1.972-1.559 3.373-1.559.773 0 1.465.171 2.076.513a3.384 3.384 0 0 1 1.39 1.425h.154v-6.132h1.763v15.443h-1.681v-1.764h-.164a3.712 3.712 0 0 1-1.456 1.44 4.217 4.217 0 0 1-2.082.519zm.41-9.854c-1.005 0-1.794.367-2.368 1.102-.575.735-.862 1.745-.862 3.03 0 1.292.286 2.304.856 3.035.571.731 1.362 1.097 2.374 1.097 1.005 0 1.798-.369 2.38-1.107.58-.738.87-1.747.87-3.025 0-1.265-.292-2.27-.876-3.015-.584-.745-1.376-1.117-2.374-1.117zm12.471-.031c-.882 0-1.606.297-2.173.892-.568.595-.886 1.38-.954 2.358h6.09c-.02-.977-.3-1.763-.84-2.358-.54-.595-1.248-.892-2.123-.892zm2.912 6.829h1.764a3.867 3.867 0 0 1-1.62 2.24c-.813.544-1.825.816-3.035.816-1.531 0-2.745-.515-3.64-1.544-.896-1.028-1.344-2.418-1.344-4.168 0-1.736.452-3.126 1.354-4.168.902-1.043 2.112-1.564 3.63-1.564 1.49 0 2.662.498 3.517 1.492.854.995 1.282 2.35 1.282 4.066v.677h-7.947v.082c.048 1.093.357 1.962.928 2.604.57.643 1.324.964 2.26.964.712 0 1.307-.128 1.785-.385a2.418 2.418 0 0 0 1.066-1.112zm5.079-11.054h1.763v2.861h2.461v1.477h-2.46v6.254c0 .65.13 1.122.389 1.416.26.293.677.44 1.25.44.158 0 .293-.003.406-.01.113-.007.251-.017.415-.03v1.486a5.304 5.304 0 0 1-1.036.103c-1.134 0-1.95-.23-2.445-.687-.496-.458-.743-1.214-.743-2.266v-6.706h-1.785v-1.477h1.785v-2.86zm9.958 12.561c.91 0 1.663-.265 2.261-.794.599-.53.898-1.188.898-1.974v-1.015l-2.974.194c-1.613.11-2.42.711-2.42 1.805 0 .56.212.998.636 1.313.424.314.957.471 1.6.471zm-.328 1.549c-1.073 0-1.963-.296-2.67-.887-.708-.592-1.062-1.393-1.062-2.405 0-2.023 1.343-3.114 4.03-3.27l3.189-.196v-1.005c0-1.408-.834-2.112-2.502-2.112-.663 0-1.214.12-1.651.359-.438.24-.718.578-.841 1.015h-1.784c.116-.889.574-1.601 1.374-2.138.8-.536 1.787-.805 2.963-.805 1.347 0 2.384.327 3.112.98.728.652 1.092 1.553 1.092 2.701v7.568h-1.681v-1.63h-.164a3.635 3.635 0 0 1-1.415 1.353c-.588.314-1.251.472-1.99.472zm8.216-.195v-11.054h1.764v11.054h-1.764zm.882-13.3c-.335 0-.624-.12-.867-.364a1.183 1.183 0 0 1-.364-.866c0-.342.122-.632.364-.872.243-.239.532-.359.867-.359.342 0 .632.12.871.36.24.239.36.53.36.871 0 .335-.12.624-.36.866-.239.243-.53.364-.871.364zm4.012 13.3v-15.443h1.763v15.443h-1.763zm4.596-8.03c0-.915.393-1.68 1.179-2.296.786-.615 1.767-.923 2.943-.923 1.162 0 2.117.267 2.866.8.748.533 1.18 1.254 1.297 2.164h-1.743c-.117-.445-.383-.8-.8-1.067-.417-.266-.96-.4-1.63-.4-.657 0-1.21.152-1.662.457-.45.304-.676.702-.676 1.194 0 .376.157.689.471.938.315.25.797.453 1.446.61l1.702.41c1.04.254 1.813.618 2.323 1.093.509.475.764 1.109.764 1.902 0 .991-.424 1.796-1.272 2.415-.847.618-1.9.928-3.158.928-1.23 0-2.239-.274-3.025-.82-.786-.548-1.227-1.28-1.323-2.195h1.815c.15.465.445.836.882 1.112.438.277 1.008.416 1.712.416.746 0 1.357-.16 1.836-.482.478-.321.718-.735.718-1.24 0-.384-.146-.703-.436-.96-.29-.256-.73-.456-1.318-.6l-1.897-.46c-1.032-.254-1.792-.616-2.281-1.088-.489-.472-.733-1.107-.733-1.907zM29.169 68.196h1.866c.116.772.516 1.388 1.2 1.846.683.458 1.552.687 2.604.687.998 0 1.824-.241 2.477-.723.653-.482.979-1.089.979-1.82 0-.63-.24-1.152-.718-1.57-.478-.416-1.227-.751-2.245-1.004l-1.897-.492c-1.34-.342-2.314-.829-2.923-1.461-.608-.633-.912-1.475-.912-2.528 0-1.258.48-2.275 1.44-3.05.96-.776 2.224-1.164 3.79-1.164 1.428 0 2.624.383 3.588 1.148.964.766 1.483 1.747 1.559 2.943H38.12c-.13-.759-.49-1.352-1.082-1.779-.591-.427-1.349-.64-2.271-.64-.985 0-1.776.225-2.374.676-.598.451-.897 1.053-.897 1.805 0 .58.22 1.052.661 1.415.44.362 1.17.673 2.19.933l1.548.41c1.53.383 2.63.895 3.296 1.538.667.643 1 1.507 1 2.594 0 1.36-.497 2.442-1.492 3.246-.995.803-2.34 1.204-4.035 1.204-1.565 0-2.849-.382-3.85-1.148-1.002-.766-1.55-1.788-1.646-3.066zM46.1 70.708c.909 0 1.662-.265 2.26-.794.599-.53.898-1.188.898-1.974v-1.015l-2.974.194c-1.613.11-2.42.711-2.42 1.805 0 .56.212.998.636 1.313.424.314.957.471 1.6.471zm-.329 1.549c-1.073 0-1.963-.296-2.67-.887-.708-.592-1.062-1.393-1.062-2.405 0-2.023 1.343-3.114 4.03-3.27l3.189-.196v-1.005c0-1.408-.834-2.112-2.502-2.112-.663 0-1.214.12-1.651.359-.438.24-.718.578-.84 1.015H42.48c.116-.889.574-1.601 1.374-2.138.8-.536 1.788-.805 2.963-.805 1.347 0 2.384.327 3.112.98.728.652 1.092 1.553 1.092 2.701v7.568h-1.681v-1.63h-.164a3.635 3.635 0 0 1-1.415 1.353c-.588.314-1.251.472-1.99.472zm8.278-.195V56.619h1.763v15.443H54.05zm5.59-13.915h1.764v2.861h2.461v1.477h-2.46v6.254c0 .65.129 1.122.389 1.416.26.293.677.44 1.25.44.158 0 .293-.003.406-.01.113-.007.251-.017.415-.03v1.486a5.304 5.304 0 0 1-1.036.103c-1.134 0-1.95-.23-2.445-.687-.496-.458-.744-1.214-.744-2.266v-6.706h-1.784v-1.477h1.784v-2.86zm21.354 12.254v1.66H72.01V57.266h1.846v13.136h7.137zm6.278-8.03c-.882 0-1.607.298-2.174.893-.568.595-.885 1.38-.954 2.358h6.091c-.02-.977-.3-1.763-.84-2.358-.54-.595-1.248-.892-2.123-.892zm2.912 6.83h1.763a3.867 3.867 0 0 1-1.62 2.24c-.813.544-1.825.816-3.035.816-1.531 0-2.745-.515-3.64-1.544-.896-1.028-1.343-2.418-1.343-4.168 0-1.736.45-3.126 1.353-4.168.903-1.043 2.113-1.564 3.63-1.564 1.49 0 2.663.498 3.517 1.492.855.995 1.282 2.35 1.282 4.066v.677h-7.947v.082c.048 1.093.357 1.962.928 2.604.57.643 1.325.964 2.261.964.711 0 1.306-.128 1.784-.385a2.418 2.418 0 0 0 1.067-1.112zm4.34 2.86V61.009h1.681v1.743h.164a3.245 3.245 0 0 1 1.236-1.425c.543-.342 1.239-.513 2.086-.513 1.245 0 2.2.354 2.866 1.061.667.708 1 1.718 1 3.03v7.158h-1.763v-6.727c0-.998-.214-1.736-.641-2.215-.428-.478-1.082-.717-1.964-.717-.882 0-1.586.276-2.112.83-.527.554-.79 1.316-.79 2.287v6.542h-1.764zm16.008.196c-1.415 0-2.543-.52-3.384-1.559-.84-1.04-1.26-2.427-1.26-4.163 0-1.736.423-3.124 1.27-4.163.848-1.04 1.973-1.559 3.374-1.559.773 0 1.465.171 2.077.513a3.384 3.384 0 0 1 1.389 1.425h.154V56.62h1.764v15.443h-1.682v-1.764h-.164a3.712 3.712 0 0 1-1.456 1.44 4.217 4.217 0 0 1-2.082.519zm.41-9.854c-1.005 0-1.794.367-2.368 1.102-.575.735-.862 1.745-.862 3.03 0 1.292.286 2.304.857 3.035.57.731 1.362 1.097 2.373 1.097 1.005 0 1.798-.369 2.38-1.107.58-.738.87-1.747.87-3.025 0-1.265-.291-2.27-.876-3.015-.584-.745-1.376-1.117-2.374-1.117zm8.103 9.659V61.008h1.764v11.054h-1.764zm.882-13.3c-.335 0-.624-.12-.866-.364a1.183 1.183 0 0 1-.364-.866c0-.342.121-.632.364-.872.242-.239.531-.359.866-.359.342 0 .632.12.872.36.239.239.359.53.359.871 0 .335-.12.624-.36.866-.239.243-.529.364-.87.364zm3.91 13.3V61.008h1.68v1.743h.165a3.245 3.245 0 0 1 1.236-1.425c.543-.342 1.239-.513 2.086-.513 1.244 0 2.2.354 2.866 1.061.667.708 1 1.718 1 3.03v7.158h-1.764v-6.727c0-.998-.213-1.736-.64-2.215-.428-.478-1.082-.717-1.964-.717-.882 0-1.586.276-2.112.83-.527.554-.79 1.316-.79 2.287v6.542h-1.764zm16.387-1.723c1.026 0 1.829-.36 2.41-1.082.581-.72.872-1.683.872-2.886s-.293-2.165-.877-2.887c-.585-.72-1.386-1.081-2.405-1.081-1.025 0-1.815.36-2.368 1.081-.554.722-.83 1.684-.83 2.887s.276 2.165.83 2.886c.553.721 1.343 1.082 2.368 1.082zm.082 5.968c-1.333 0-2.404-.275-3.214-.826-.81-.55-1.284-1.283-1.42-2.199h1.866c.096.451.383.812.861 1.082.479.27 1.114.405 1.907.405.992 0 1.766-.23 2.323-.692.557-.462.836-1.1.836-1.913V69.99h-.164a3.646 3.646 0 0 1-1.426 1.41c-.601.332-1.281.498-2.04.498-1.429 0-2.559-.508-3.39-1.523-.83-1.015-1.245-2.35-1.245-4.004 0-1.654.417-2.994 1.251-4.02.834-1.025 1.962-1.538 3.384-1.538.772 0 1.478.176 2.117.528.64.352 1.116.826 1.43 1.42h.165v-1.753h1.681v11.249c0 1.237-.442 2.221-1.328 2.953-.885.731-2.083 1.097-3.594 1.097z"/>
            </g>
            <g fill="#8E8E93" mask="url(#c)">
                <path d="M447.18 33.2v-9.58h1.457v1.51h.143c.242-.526.6-.938 1.07-1.234.471-.297 1.074-.445 1.809-.445 1.078 0 1.906.307 2.484.92.577.613.866 1.489.866 2.626V33.2h-1.528v-5.83c0-.865-.186-1.505-.556-1.92-.37-.414-.937-.621-1.702-.621-.764 0-1.374.24-1.83.72-.456.48-.685 1.14-.685 1.981v5.67h-1.528zm14.003.169c-1.363 0-2.44-.443-3.23-1.329-.791-.885-1.187-2.095-1.187-3.63 0-1.54.396-2.752 1.187-3.635.79-.882 1.867-1.324 3.23-1.324 1.362 0 2.44.442 3.23 1.324.791.883 1.187 2.095 1.187 3.635 0 1.535-.396 2.745-1.187 3.63-.79.886-1.868 1.329-3.23 1.329zm0-1.378c.906 0 1.605-.314 2.097-.942.492-.628.738-1.507.738-2.639 0-1.137-.246-2.019-.738-2.644s-1.19-.937-2.097-.937-1.606.312-2.097.937c-.492.625-.738 1.507-.738 2.644 0 1.132.246 2.011.738 2.64.491.627 1.19.941 2.097.941zm17.957-8.37l-.27.968-.672 2.395-.8 2.852-.67 2.395-.271.969H474.9l-2.141-7.412h-.143l-2.132 7.412h-1.547l-2.683-9.58h1.546l1.884 7.66h.142l2.142-7.66h1.466l2.142 7.66h.142l1.884-7.66h1.537z"/>
            </g>
        </g>
        <path fill="#8E8E93" d="M94.063 48.6H92.57v-9.793h-.106L88.42 48.51h-1.35l-4.044-9.704h-.107V48.6h-1.493V35.776h1.858l4.39 10.611h.142l4.39-10.61h1.857V48.6zm10.662-1.44v1.44H96.78V35.776h7.945v1.44H98.38v4.115h6.016v1.422H98.38v4.407h6.345zm1.73-1.91h1.617c.101.67.448 1.202 1.04 1.6.593.396 1.345.595 2.257.595.865 0 1.58-.21 2.147-.627.565-.417.848-.943.848-1.577 0-.545-.207-.998-.622-1.36-.415-.361-1.063-.652-1.946-.87l-1.644-.427c-1.161-.297-2.006-.719-2.533-1.267-.527-.548-.79-1.278-.79-2.19 0-1.09.415-1.972 1.248-2.644.832-.672 1.927-1.009 3.284-1.009 1.238 0 2.275.332 3.11.996.835.663 1.285 1.513 1.35 2.55h-1.608c-.112-.658-.425-1.171-.937-1.542-.513-.37-1.169-.555-1.969-.555-.853 0-1.539.195-2.057.586-.518.391-.778.913-.778 1.564 0 .504.191.913.574 1.227.382.314 1.014.583 1.897.808l1.342.356c1.327.332 2.28.776 2.857 1.333.577.557.866 1.306.866 2.248 0 1.18-.43 2.117-1.293 2.813-.862.696-2.027 1.044-3.497 1.044-1.356 0-2.469-.332-3.337-.995-.868-.664-1.343-1.55-1.426-2.657zm11.044 0h1.617c.1.67.447 1.202 1.04 1.6.592.396 1.345.595 2.257.595.865 0 1.58-.21 2.146-.627.566-.417.849-.943.849-1.577 0-.545-.208-.998-.622-1.36-.415-.361-1.064-.652-1.946-.87l-1.644-.427c-1.162-.297-2.006-.719-2.533-1.267-.527-.548-.791-1.278-.791-2.19 0-1.09.416-1.972 1.248-2.644.833-.672 1.927-1.009 3.284-1.009 1.238 0 2.275.332 3.11.996.836.663 1.286 1.513 1.351 2.55h-1.608c-.113-.658-.425-1.171-.938-1.542-.512-.37-1.168-.555-1.968-.555-.853 0-1.54.195-2.057.586-.519.391-.778.913-.778 1.564 0 .504.191.913.573 1.227.382.314 1.015.583 1.897.808l1.342.356c1.327.332 2.28.776 2.857 1.333.578.557.867 1.306.867 2.248 0 1.18-.431 2.117-1.293 2.813-.862.696-2.028 1.044-3.497 1.044-1.357 0-2.47-.332-3.337-.995-.868-.664-1.343-1.55-1.426-2.657zm19.992 3.35l-.195-.555-.45-1.28-.448-1.28-.195-.555h-5.101l-1.289 3.67h-1.68l4.728-12.824h1.582l4.728 12.824h-1.68zm-3.91-10.753l-.204.578c-.137.385-.304.862-.502 1.43l-.596 1.707c-.198.568-.366 1.045-.502 1.43l-.204.578h4.159l-2.009-5.723h-.142zm17.424 5.794c0 1.582-.497 2.854-1.493 3.817-.995.963-2.313 1.444-3.954 1.444-1.772 0-3.183-.607-4.235-1.822-1.051-1.214-1.577-2.846-1.577-4.896 0-2.026.53-3.651 1.59-4.875 1.061-1.223 2.468-1.835 4.222-1.835 1.422 0 2.614.37 3.577 1.107.962.737 1.56 1.743 1.79 3.017H149.3c-.272-.865-.726-1.523-1.36-1.973-.633-.45-1.427-.675-2.381-.675-1.268 0-2.28.473-3.035 1.421-.755.948-1.133 2.22-1.133 3.813 0 1.617.375 2.895 1.124 3.834.75.94 1.767 1.409 3.053 1.409 1.149 0 2.078-.335 2.786-1.004.708-.67 1.062-1.547 1.062-2.63v-.312h-3.608v-1.404h5.198v1.564zm10.218 3.52V48.6h-7.945V35.776h7.945v1.44h-6.346v4.115h6.017v1.422h-6.017v4.407h6.346zm1.73-1.911H164.57c.101.67.448 1.202 1.04 1.6.592.396 1.345.595 2.257.595.865 0 1.58-.21 2.146-.627.566-.417.85-.943.85-1.577 0-.545-.208-.998-.623-1.36-.415-.361-1.063-.652-1.946-.87l-1.644-.427c-1.161-.297-2.006-.719-2.533-1.267-.527-.548-.79-1.278-.79-2.19 0-1.09.415-1.972 1.248-2.644.832-.672 1.927-1.009 3.283-1.009 1.239 0 2.275.332 3.11.996.836.663 1.286 1.513 1.351 2.55h-1.608c-.113-.658-.425-1.171-.938-1.542-.512-.37-1.168-.555-1.968-.555-.853 0-1.539.195-2.057.586-.519.391-.778.913-.778 1.564 0 .504.191.913.573 1.227.382.314 1.015.583 1.898.808l1.342.356c1.327.332 2.279.776 2.857 1.333.577.557.866 1.306.866 2.248 0 1.18-.43 2.117-1.293 2.813-.862.696-2.028 1.044-3.497 1.044-1.357 0-2.469-.332-3.337-.995-.868-.664-1.343-1.55-1.426-2.657z"/>
        <path fill="#34E89E" d="M49.904 28.199h12.192c2.68 0 3.651.279 4.63.803a5.461 5.461 0 0 1 2.272 2.271c.524.98.803 1.951.803 4.63v12.193c0 2.68-.279 3.651-.803 4.63a5.461 5.461 0 0 1-2.271 2.272c-.98.524-1.951.803-4.63.803H49.903c-2.68 0-3.651-.279-4.63-.803a5.461 5.461 0 0 1-2.272-2.271c-.524-.98-.803-1.951-.803-4.63V35.903c0-2.68.279-3.651.803-4.63a5.461 5.461 0 0 1 2.271-2.272c.98-.524 1.951-.803 4.63-.803z"/>
        <path fill="#FFF" d="M54.06 49.52c-.552-.053-.88-.002-1.446.173-.679.21-1.727 1.113-3.162 1.113-.081 0 1.354-1.157 1.354-2.032v-.31c-2.844-1.45-4.741-4.056-4.741-7.029 0-4.551 4.448-8.241 9.935-8.241s9.935 3.69 9.935 8.241c0 4.552-4.448 8.242-9.935 8.242-.664 0-1.312-.054-1.94-.156z"/>
    </g>
</svg>
