<svg xmlns="http://www.w3.org/2000/svg" xmlns:xlink="http://www.w3.org/1999/xlink" width="573" height="695" viewBox="0 0 573 695">
    <defs>
        <rect id="b" width="470" height="70" rx="5.6"/>
        <filter id="a" width="106.4%" height="142.9%" x="-3.2%" y="-21.4%" filterUnits="objectBoundingBox">
            <feOffset in="SourceAlpha" result="shadowOffsetOuter1"/>
            <feGaussianBlur in="shadowOffsetOuter1" result="shadowBlurOuter1" stdDeviation="5"/>
            <feColorMatrix in="shadowBlurOuter1" values="0 0 0 0 0 0 0 0 0 0 0 0 0 0 0 0 0 0 0.1 0"/>
        </filter>
        <rect id="d" width="470" height="70" rx="5.6"/>
        <filter id="c" width="106.4%" height="142.9%" x="-3.2%" y="-21.4%" filterUnits="objectBoundingBox">
            <feOffset in="SourceAlpha" result="shadowOffsetOuter1"/>
            <feGaussianBlur in="shadowOffsetOuter1" result="shadowBlurOuter1" stdDeviation="5"/>
            <feColorMatrix in="shadowBlurOuter1" values="0 0 0 0 0 0 0 0 0 0 0 0 0 0 0 0 0 0 0.1 0"/>
        </filter>
        <rect id="f" width="470" height="70" rx="5.6"/>
        <filter id="e" width="106.4%" height="142.9%" x="-3.2%" y="-21.4%" filterUnits="objectBoundingBox">
            <feOffset in="SourceAlpha" result="shadowOffsetOuter1"/>
            <feGaussianBlur in="shadowOffsetOuter1" result="shadowBlurOuter1" stdDeviation="5"/>
            <feColorMatrix in="shadowBlurOuter1" values="0 0 0 0 0 0 0 0 0 0 0 0 0 0 0 0 0 0 0.1 0"/>
        </filter>
        <rect id="h" width="470" height="70" rx="5.6"/>
        <filter id="g" width="106.4%" height="142.9%" x="-3.2%" y="-21.4%" filterUnits="objectBoundingBox">
            <feOffset in="SourceAlpha" result="shadowOffsetOuter1"/>
            <feGaussianBlur in="shadowOffsetOuter1" result="shadowBlurOuter1" stdDeviation="5"/>
            <feColorMatrix in="shadowBlurOuter1" values="0 0 0 0 0 0 0 0 0 0 0 0 0 0 0 0 0 0 0.1 0"/>
        </filter>
        <rect id="j" width="470" height="70" rx="5.6"/>
        <filter id="i" width="106.4%" height="142.9%" x="-3.2%" y="-21.4%" filterUnits="objectBoundingBox">
            <feOffset in="SourceAlpha" result="shadowOffsetOuter1"/>
            <feGaussianBlur in="shadowOffsetOuter1" result="shadowBlurOuter1" stdDeviation="5"/>
            <feColorMatrix in="shadowBlurOuter1" values="0 0 0 0 0 0 0 0 0 0 0 0 0 0 0 0 0 0 0.1 0"/>
        </filter>
        <path id="l" d="M54 0h462a4 4 0 0 1 4 4v245H50V4a4 4 0 0 1 4-4z"/>
        <filter id="k" width="106.4%" height="112%" x="-3.2%" y="-6%" filterUnits="objectBoundingBox">
            <feOffset in="SourceAlpha" result="shadowOffsetOuter1"/>
            <feGaussianBlur in="shadowOffsetOuter1" result="shadowBlurOuter1" stdDeviation="5"/>
            <feColorMatrix in="shadowBlurOuter1" values="0 0 0 0 0 0 0 0 0 0 0 0 0 0 0 0 0 0 0.1 0"/>
        </filter>
    </defs>
    <g fill="none" fill-rule="evenodd">
        <g fill-rule="nonzero" transform="translate(52 275)">
            <use fill="#000" filter="url(#a)" xlink:href="#b"/>
            <use fill="#FFF" xlink:href="#b"/>
        </g>
        <g transform="translate(83.118 297)">
            <path fill="#28283D" d="M.64 20V6h3.68c2.88 0 4.5 1.48 4.5 3.82 0 1.9-1.38 2.7-1.58 2.74.2.04 2.34.66 2.34 3.44 0 2.44-1.8 4-4.56 4H.64zm4.38-1.6c2 0 2.88-1.08 2.88-2.4 0-1.32-.88-2.4-2.88-2.4h-2.7v4.8h2.7zm-2.7-6.36H4.6c1.58 0 2.54-.86 2.54-2.22 0-1.36-.96-2.22-2.54-2.22H2.32v4.44zM14.56 20V7.6h-4.02V6h9.72v1.6h-4.02V20h-1.68zM33.24 7.9L32.08 9s-1.3-1.64-3.86-1.64c-3.04 0-5.12 2.66-5.12 5.64 0 2.98 2.08 5.64 5.12 5.64 2.54 0 4.04-1.86 4.04-1.86l1.14 1.16s-1.9 2.3-5.18 2.3c-4.04 0-6.92-3.2-6.92-7.24s2.88-7.24 6.92-7.24c3.28 0 5.02 2.14 5.02 2.14zM98.224 10.76c0-.992-.816-1.904-2-1.904-1.6 0-2.096 1.456-2.096 1.456L92.976 9.8s.8-2.192 3.248-2.192c1.84 0 3.344 1.376 3.344 3.152 0 1.824-1.376 2.432-1.376 2.432s1.648.432 1.648 2.72c0 2.032-1.6 3.28-3.648 3.28-2.88 0-3.6-2.544-3.6-2.544l1.184-.544s.48 1.84 2.416 1.84c1.44 0 2.304-.96 2.304-2.032 0-1.248-.768-2.016-2.368-2.016H95.6v-1.232h.336c1.264 0 2.288-.624 2.288-1.904zm7.232-3.152c2.848 0 4.048 2.8 4.048 5.792s-1.2 5.792-4.048 5.792-4.08-2.8-4.08-5.792 1.232-5.792 4.08-5.792zm0 10.336c1.984 0 2.704-2.352 2.704-4.544 0-2.192-.72-4.544-2.704-4.544-1.984 0-2.736 2.352-2.736 4.544 0 2.192.752 4.544 2.736 4.544zM113.2 7.608c1.392 0 2.512 1.088 2.512 2.48s-1.12 2.48-2.512 2.48-2.512-1.088-2.512-2.48 1.12-2.48 2.512-2.48zm0 4.096c.896 0 1.584-.736 1.584-1.616 0-.88-.688-1.616-1.584-1.616-.896 0-1.584.736-1.584 1.616 0 .88.688 1.616 1.584 1.616zm-1.488 7.12l7.376-11.344.688.464-7.344 11.376-.72-.496zm6.832-4.592c1.392 0 2.512 1.088 2.512 2.48s-1.12 2.48-2.512 2.48-2.512-1.088-2.512-2.48 1.12-2.48 2.512-2.48zm0 4.096c.896 0 1.584-.736 1.584-1.616 0-.88-.688-1.616-1.584-1.616-.896 0-1.584.736-1.584 1.616 0 .88.688 1.616 1.584 1.616zM342.788 19.316v-1.162c-2.17-.182-3.22-1.96-3.22-1.96l1.302-1.036s.672 1.204 1.918 1.414v-2.786c-1.372-.504-2.786-1.288-2.786-2.982 0-1.288 1.05-2.562 2.786-2.744V6.884h.882V8.06c1.708.196 2.66 1.428 2.66 1.428l-1.26 1.05s-.518-.686-1.4-.882V12.4a.502.502 0 0 0 .154.056c1.498.56 2.758 1.218 2.758 2.982 0 1.61-1.302 2.548-2.912 2.702v1.176h-.882zm2.086-3.878c0-.672-.434-1.008-1.204-1.33v2.45c.644-.112 1.204-.476 1.204-1.12zm-3.164-4.634c0 .602.378.924 1.078 1.246V9.656c-.644.14-1.078.602-1.078 1.148zm5.628-.224l2.982-2.38h1.386V18h-1.68v-7.56l-1.722 1.372-.966-1.232zm11.886 2.45c.007.002 1.442.369 1.442 2.24 0 1.778-1.484 2.898-3.388 2.898-2.73 0-3.43-2.268-3.43-2.268l1.372-.798s.434 1.498 2.058 1.498c1.064 0 1.708-.574 1.708-1.33 0-1.036-.896-1.386-1.778-1.386h-.7v-1.54h.532c1.022 0 1.694-.378 1.694-1.372 0-.784-.602-1.372-1.47-1.372-1.274 0-1.666 1.19-1.666 1.19l-1.456-.686s.756-2.072 3.122-2.072c1.792 0 3.164 1.134 3.164 2.94 0 1.396-1.197 2.054-1.204 2.058zm3.472 3.612l1.4.49-1.218 3.262-1.288-.448 1.106-3.304zm7.56-8.022l-1.82 2.954s.182-.042.336-.042c2.114 0 3.318 1.652 3.318 3.318 0 1.666-1.33 3.318-3.43 3.318s-3.43-1.652-3.43-3.29c0-.84.294-1.568.546-2.03.154-.28 3.08-5.096 3.08-5.096l1.4.868zm-1.596 4.48c-.966 0-1.736.686-1.736 1.75s.77 1.75 1.736 1.75 1.736-.686 1.736-1.75-.77-1.75-1.736-1.75zm8.176-5.068c2.492 0 3.668 2.408 3.668 5.068 0 2.66-1.176 5.068-3.668 5.068s-3.696-2.408-3.696-5.068c0-2.66 1.204-5.068 3.696-5.068zm0 8.568c1.358 0 1.988-1.582 1.988-3.5s-.63-3.5-1.988-3.5-2.016 1.582-2.016 3.5.658 3.5 2.016 3.5zm4.788 1.4l3.598-4.564c.364-.476 1.134-1.218 1.134-2.324 0-.784-.532-1.512-1.456-1.512-1.442 0-1.75 1.428-1.75 1.428l-1.498-.546s.63-2.45 3.248-2.45c2.114 0 3.136 1.428 3.136 3.052 0 1.218-.616 2.086-.854 2.408l-2.254 2.912h3.15V18h-6.454zm7.938-.938a1.1 1.1 0 0 1 1.106-1.106 1.1 1.1 0 0 1 1.106 1.106 1.1 1.1 0 0 1-1.106 1.106 1.1 1.1 0 0 1-1.106-1.106zm8.512-8.442l-1.82 2.954s.182-.042.336-.042c2.114 0 3.318 1.652 3.318 3.318 0 1.666-1.33 3.318-3.43 3.318s-3.43-1.652-3.43-3.29c0-.84.294-1.568.546-2.03.154-.28 3.08-5.096 3.08-5.096l1.4.868zm-1.596 4.48c-.966 0-1.736.686-1.736 1.75s.77 1.75 1.736 1.75 1.736-.686 1.736-1.75-.77-1.75-1.736-1.75zm9.814-.07c.005.001 1.442.367 1.442 2.24 0 1.778-1.484 2.898-3.388 2.898-2.73 0-3.43-2.268-3.43-2.268l1.372-.798s.434 1.498 2.058 1.498c1.064 0 1.708-.574 1.708-1.33 0-1.036-.896-1.386-1.778-1.386h-.7v-1.54h.532c1.022 0 1.694-.378 1.694-1.372 0-.784-.602-1.372-1.47-1.372-1.274 0-1.666 1.19-1.666 1.19l-1.456-.686s.756-2.072 3.122-2.072c1.792 0 3.164 1.134 3.164 2.94 0 1.397-1.2 2.055-1.204 2.058z"/>
            <rect width="123.121" height="14" x="170" y="6" fill="#F0F0F0" fill-rule="nonzero" rx="7"/>
            <rect width="73.764" height="14" x="170" y="6" fill="#FF8C00" fill-rule="nonzero" rx="7"/>
        </g>
        <g fill-rule="nonzero" transform="translate(52 365)">
            <use fill="#000" filter="url(#c)" xlink:href="#d"/>
            <use fill="#FFF" xlink:href="#d"/>
        </g>
        <g transform="translate(83.118 387)">
            <path fill="#28283D" d="M4.66 6c4.34 0 6.92 2.96 6.92 7S9 20 4.66 20H.64V6h4.02zm-.1 12.4c3.42 0 5.22-2.42 5.22-5.4 0-2.98-1.8-5.4-5.22-5.4H2.32v10.8h2.24zM12.5 20L18 6h1.56l5.46 14h-1.76l-1.46-3.78h-6.04L14.3 20h-1.8zm6.28-11.6l-2.4 6.22h4.8l-2.4-6.22zm14.48 8.04c0-1.46-1.16-2.02-2.72-2.74-2.04-.94-3.84-1.88-3.84-4.26 0-1.64 1.36-3.68 4.04-3.68 2.64 0 3.98 2.04 3.98 2.04l-1.26 1.02s-.98-1.46-2.72-1.46c-1.54 0-2.36 1.08-2.36 2.08 0 1.42 1.2 1.98 3.12 2.86 2.14.98 3.48 1.88 3.48 4.14 0 2.28-1.88 3.8-4.34 3.8-3.32 0-4.46-2.92-4.46-2.92l1.4-.84s.84 2.16 3.06 2.16c1.34 0 2.62-.76 2.62-2.2zm13.1-4.42V6h1.68v14h-1.68v-6.38h-7.02V20h-1.68V6h1.68v6.02h7.02zM92.832 19l3.936-5.216c.416-.544 1.424-1.664 1.424-2.896 0-1.072-.672-2.032-2.064-2.032-1.776 0-2.208 1.712-2.208 1.712l-1.152-.432s.64-2.528 3.36-2.528c2.064 0 3.408 1.424 3.408 3.28 0 1.504-.928 2.56-1.168 2.896l-2.976 3.968h4.224V19h-6.784zm16.112-3.568c0 2.512-1.872 3.76-3.808 3.76-2.752 0-3.632-2.416-3.632-2.416l1.168-.624s.624 1.792 2.464 1.792c1.312 0 2.464-.864 2.464-2.512 0-1.68-1.12-2.512-2.496-2.512-1.552 0-3.04 1.248-3.04 1.248V7.8h6.64v1.248h-5.36v3.072s.816-.464 2.064-.464c1.808 0 3.536 1.216 3.536 3.776zm3.792-7.824c1.392 0 2.512 1.088 2.512 2.48s-1.12 2.48-2.512 2.48-2.512-1.088-2.512-2.48 1.12-2.48 2.512-2.48zm0 4.096c.896 0 1.584-.736 1.584-1.616 0-.88-.688-1.616-1.584-1.616-.896 0-1.584.736-1.584 1.616 0 .88.688 1.616 1.584 1.616zm-1.488 7.12l7.376-11.344.688.464-7.344 11.376-.72-.496zm6.832-4.592c1.392 0 2.512 1.088 2.512 2.48s-1.12 2.48-2.512 2.48-2.512-1.088-2.512-2.48 1.12-2.48 2.512-2.48zm0 4.096c.896 0 1.584-.736 1.584-1.616 0-.88-.688-1.616-1.584-1.616-.896 0-1.584.736-1.584 1.616 0 .88.688 1.616 1.584 1.616zM344.258 19.316v-1.162c-2.17-.182-3.22-1.96-3.22-1.96l1.302-1.036s.672 1.204 1.918 1.414v-2.786c-1.372-.504-2.786-1.288-2.786-2.982 0-1.288 1.05-2.562 2.786-2.744V6.884h.882V8.06c1.708.196 2.66 1.428 2.66 1.428l-1.26 1.05s-.518-.686-1.4-.882V12.4a.502.502 0 0 0 .154.056c1.498.56 2.758 1.218 2.758 2.982 0 1.61-1.302 2.548-2.912 2.702v1.176h-.882zm2.086-3.878c0-.672-.434-1.008-1.204-1.33v2.45c.644-.112 1.204-.476 1.204-1.12zm-3.164-4.634c0 .602.378.924 1.078 1.246V9.656c-.644.14-1.078.602-1.078 1.148zm5.628-.224l2.982-2.38h1.386V18h-1.68v-7.56l-1.722 1.372-.966-1.232zm6.216 0l2.982-2.38h1.386V18h-1.68v-7.56l-1.722 1.372-.966-1.232zm7.378 6.062l1.4.49-1.218 3.262-1.288-.448 1.106-3.304zm7.882-3.612c.005.001 1.442.367 1.442 2.24 0 1.778-1.484 2.898-3.388 2.898-2.73 0-3.43-2.268-3.43-2.268l1.372-.798s.434 1.498 2.058 1.498c1.064 0 1.708-.574 1.708-1.33 0-1.036-.896-1.386-1.778-1.386h-.7v-1.54h.532c1.022 0 1.694-.378 1.694-1.372 0-.784-.602-1.372-1.47-1.372-1.274 0-1.666 1.19-1.666 1.19l-1.456-.686s.756-2.072 3.122-2.072c1.792 0 3.164 1.134 3.164 2.94 0 1.398-1.2 2.056-1.204 2.058zm7.49-2.058c0-.784-.602-1.372-1.47-1.372-1.274 0-1.666 1.19-1.666 1.19l-1.456-.686s.756-2.072 3.122-2.072c1.792 0 3.164 1.134 3.164 2.94 0 1.4-1.204 2.058-1.204 2.058s1.442.364 1.442 2.24c0 1.778-1.484 2.898-3.388 2.898-2.73 0-3.43-2.268-3.43-2.268l1.372-.798s.434 1.498 2.058 1.498c1.064 0 1.708-.574 1.708-1.33 0-1.036-.896-1.386-1.778-1.386h-.7v-1.54h.532c1.022 0 1.694-.378 1.694-1.372zm10.164 3.808c0 2.296-1.792 3.388-3.486 3.388-2.59 0-3.43-2.268-3.43-2.268l1.4-.798s.504 1.498 2.03 1.498c1.134 0 1.792-.798 1.792-1.82 0-1.05-.63-1.82-2.086-1.82-1.358 0-2.632 1.064-2.632 1.064V8.2h6.16v1.596h-4.48v1.918s.546-.294 1.386-.294c1.736 0 3.346 1.064 3.346 3.36zm1.33 2.282a1.1 1.1 0 0 1 1.106-1.106 1.1 1.1 0 0 1 1.106 1.106 1.1 1.1 0 0 1-1.106 1.106 1.1 1.1 0 0 1-1.106-1.106zm10.528-2.282c0 2.296-1.792 3.388-3.486 3.388-2.59 0-3.43-2.268-3.43-2.268l1.4-.798s.504 1.498 2.03 1.498c1.134 0 1.792-.798 1.792-1.82 0-1.05-.63-1.82-2.086-1.82-1.358 0-2.632 1.064-2.632 1.064V8.2h6.16v1.596h-4.48v1.918s.546-.294 1.386-.294c1.736 0 3.346 1.064 3.346 3.36zm6.496-1.75c.005.001 1.442.367 1.442 2.24 0 1.778-1.484 2.898-3.388 2.898-2.73 0-3.43-2.268-3.43-2.268l1.372-.798s.434 1.498 2.058 1.498c1.064 0 1.708-.574 1.708-1.33 0-1.036-.896-1.386-1.778-1.386h-.7v-1.54h.532c1.022 0 1.694-.378 1.694-1.372 0-.784-.602-1.372-1.47-1.372-1.274 0-1.666 1.19-1.666 1.19l-1.456-.686s.756-2.072 3.122-2.072c1.792 0 3.164 1.134 3.164 2.94 0 1.397-1.2 2.055-1.204 2.058z"/>
            <rect width="123.121" height="14" x="170" y="6" fill="#F0F0F0" fill-rule="nonzero" rx="7"/>
            <rect width="49.104" height="14" x="170" y="6" fill="#2BA0FF" fill-rule="nonzero" rx="7"/>
        </g>
        <g fill-rule="nonzero" transform="translate(52 455)">
            <use fill="#000" filter="url(#e)" xlink:href="#f"/>
            <use fill="#FFF" xlink:href="#f"/>
        </g>
        <g transform="translate(83.118 477)">
            <path fill="#28283D" d="M2.32 7.6v4.42h5.92v1.6H2.32v4.78h6.52V20H.64V6h8.08v1.6h-6.4zM14.18 20V7.6h-4.02V6h9.72v1.6h-4.02V20h-1.68zm16.32-7.98V6h1.68v14H30.5v-6.38h-7.02V20H21.8V6h1.68v6.02h7.02zM92.288 10.248L95.36 7.8h1.2V19h-1.344V9.56l-2.144 1.712-.784-1.024zm10.608-2.64c2 0 3.152 1.536 3.152 3.008 0 .912-.496 1.872-1.248 2.32 1.008.544 1.648 1.584 1.648 2.864 0 1.824-1.408 3.392-3.552 3.392s-3.552-1.568-3.552-3.392c0-1.28.64-2.32 1.648-2.864-.752-.448-1.248-1.408-1.248-2.32 0-1.472 1.152-3.008 3.152-3.008zm0 10.336a2.157 2.157 0 0 0 2.208-2.144c0-1.152-.832-2.224-2.208-2.224-1.376 0-2.208 1.072-2.208 2.224 0 1.072.848 2.144 2.208 2.144zm0-5.536c1.008 0 1.808-.736 1.808-1.776s-.8-1.776-1.808-1.776-1.808.736-1.808 1.776.8 1.776 1.808 1.776zm7.44-4.8c1.392 0 2.512 1.088 2.512 2.48s-1.12 2.48-2.512 2.48-2.512-1.088-2.512-2.48 1.12-2.48 2.512-2.48zm0 4.096c.896 0 1.584-.736 1.584-1.616 0-.88-.688-1.616-1.584-1.616-.896 0-1.584.736-1.584 1.616 0 .88.688 1.616 1.584 1.616zm-1.488 7.12l7.376-11.344.688.464-7.344 11.376-.72-.496zm6.832-4.592c1.392 0 2.512 1.088 2.512 2.48s-1.12 2.48-2.512 2.48-2.512-1.088-2.512-2.48 1.12-2.48 2.512-2.48zm0 4.096c.896 0 1.584-.736 1.584-1.616 0-.88-.688-1.616-1.584-1.616-.896 0-1.584.736-1.584 1.616 0 .88.688 1.616 1.584 1.616zM352.364 19.316v-1.162c-2.17-.182-3.22-1.96-3.22-1.96l1.302-1.036s.672 1.204 1.918 1.414v-2.786c-1.372-.504-2.786-1.288-2.786-2.982 0-1.288 1.05-2.562 2.786-2.744V6.884h.882V8.06c1.708.196 2.66 1.428 2.66 1.428l-1.26 1.05s-.518-.686-1.4-.882V12.4a.502.502 0 0 0 .154.056c1.498.56 2.758 1.218 2.758 2.982 0 1.61-1.302 2.548-2.912 2.702v1.176h-.882zm2.086-3.878c0-.672-.434-1.008-1.204-1.33v2.45c.644-.112 1.204-.476 1.204-1.12zm-3.164-4.634c0 .602.378.924 1.078 1.246V9.656c-.644.14-1.078.602-1.078 1.148zm7.448 1.988c-.002-.001-1.092-.631-1.092-1.932 0-1.456 1.036-2.828 3.08-2.828s3.08 1.372 3.08 2.828c0 1.302-1.092 1.932-1.092 1.932s1.372.546 1.372 2.324c0 1.638-1.232 3.052-3.36 3.052s-3.36-1.414-3.36-3.052c0-1.777 1.37-2.323 1.372-2.324zm1.988 3.836c1.106 0 1.666-.742 1.666-1.54s-.56-1.512-1.666-1.512c-1.106 0-1.666.714-1.666 1.512s.56 1.54 1.666 1.54zm1.414-5.754c0-.798-.63-1.302-1.414-1.302-.784 0-1.414.504-1.414 1.302s.63 1.302 1.414 1.302c.784 0 1.414-.504 1.414-1.302zm4.004 5.768l1.4.49-1.218 3.262-1.288-.448 1.106-3.304zm2.212-6.062l2.982-2.38h1.386V18h-1.68v-7.56l-1.722 1.372-.966-1.232zm11.564-1.96l-1.82 2.954s.182-.042.336-.042c2.114 0 3.318 1.652 3.318 3.318 0 1.666-1.33 3.318-3.43 3.318s-3.43-1.652-3.43-3.29c0-.84.294-1.568.546-2.03.154-.28 3.08-5.096 3.08-5.096l1.4.868zm-1.596 4.48c-.966 0-1.736.686-1.736 1.75s.77 1.75 1.736 1.75 1.736-.686 1.736-1.75-.77-1.75-1.736-1.75zm4.144-2.52l2.982-2.38h1.386V18h-1.68v-7.56l-1.722 1.372-.966-1.232zm6.72 6.482a1.1 1.1 0 0 1 1.106-1.106 1.1 1.1 0 0 1 1.106 1.106 1.1 1.1 0 0 1-1.106 1.106 1.1 1.1 0 0 1-1.106-1.106zm10.528-2.282c0 2.296-1.792 3.388-3.486 3.388-2.59 0-3.43-2.268-3.43-2.268l1.4-.798s.504 1.498 2.03 1.498c1.134 0 1.792-.798 1.792-1.82 0-1.05-.63-1.82-2.086-1.82-1.358 0-2.632 1.064-2.632 1.064V8.2h6.16v1.596h-4.48v1.918s.546-.294 1.386-.294c1.736 0 3.346 1.064 3.346 3.36zm6.622-1.988c.002 0 1.372.547 1.372 2.324 0 1.638-1.232 3.052-3.36 3.052s-3.36-1.414-3.36-3.052c0-1.778 1.372-2.324 1.372-2.324s-1.092-.63-1.092-1.932c0-1.456 1.036-2.828 3.08-2.828s3.08 1.372 3.08 2.828c0 1.3-1.09 1.93-1.092 1.932zm-1.988 3.836c1.106 0 1.666-.742 1.666-1.54s-.56-1.512-1.666-1.512c-1.106 0-1.666.714-1.666 1.512s.56 1.54 1.666 1.54zm1.414-5.754c0-.798-.63-1.302-1.414-1.302-.784 0-1.414.504-1.414 1.302s.63 1.302 1.414 1.302c.784 0 1.414-.504 1.414-1.302z"/>
            <rect width="123.121" height="14" x="170" y="6" fill="#F0F0F0" fill-rule="nonzero" rx="7"/>
            <rect width="44.194" height="14" x="170" y="6" fill="#6585FF" fill-rule="nonzero" rx="7"/>
        </g>
        <g>
            <g fill-rule="nonzero" transform="translate(52 535)">
                <use fill="#000" filter="url(#g)" xlink:href="#h"/>
                <use fill="#FFF" xlink:href="#h"/>
            </g>
            <g transform="translate(82.118 557)">
                <path fill="#28283D" d="M4.3 20V7.6H.28V6H10v1.6H5.98V20H4.3zm16.14-5.34V6h1.68v8.84c0 3.18-1.9 5.4-5.1 5.4-3.2 0-5.1-2.22-5.1-5.4V6h1.68v8.66c0 2.26 1 3.98 3.42 3.98s3.42-1.72 3.42-3.98zm11.4 1.78c0-1.46-1.16-2.02-2.72-2.74-2.04-.94-3.84-1.88-3.84-4.26 0-1.64 1.36-3.68 4.04-3.68 2.64 0 3.98 2.04 3.98 2.04l-1.26 1.02s-.98-1.46-2.72-1.46c-1.54 0-2.36 1.08-2.36 2.08 0 1.42 1.2 1.98 3.12 2.86 2.14.98 3.48 1.88 3.48 4.14 0 2.28-1.88 3.8-4.34 3.8-3.32 0-4.46-2.92-4.46-2.92l1.4-.84s.84 2.16 3.06 2.16c1.34 0 2.62-.76 2.62-2.2zM40.26 6c4.34 0 6.92 2.96 6.92 7s-2.58 7-6.92 7h-4.02V6h4.02zm-.1 12.4c3.42 0 5.22-2.42 5.22-5.4 0-2.98-1.8-5.4-5.22-5.4h-2.24v10.8h2.24zM93.288 10.248L96.36 7.8h1.2V19h-1.344V9.56l-2.144 1.712-.784-1.024zm14.624 5.184c0 2.512-1.872 3.76-3.808 3.76-2.752 0-3.632-2.416-3.632-2.416l1.168-.624s.624 1.792 2.464 1.792c1.312 0 2.464-.864 2.464-2.512 0-1.68-1.12-2.512-2.496-2.512-1.552 0-3.04 1.248-3.04 1.248V7.8h6.64v1.248h-5.36v3.072s.816-.464 2.064-.464c1.808 0 3.536 1.216 3.536 3.776zm3.792-7.824c1.392 0 2.512 1.088 2.512 2.48s-1.12 2.48-2.512 2.48-2.512-1.088-2.512-2.48 1.12-2.48 2.512-2.48zm0 4.096c.896 0 1.584-.736 1.584-1.616 0-.88-.688-1.616-1.584-1.616-.896 0-1.584.736-1.584 1.616 0 .88.688 1.616 1.584 1.616zm-1.488 7.12l7.376-11.344.688.464-7.344 11.376-.72-.496zm6.832-4.592c1.392 0 2.512 1.088 2.512 2.48s-1.12 2.48-2.512 2.48-2.512-1.088-2.512-2.48 1.12-2.48 2.512-2.48zm0 4.096c.896 0 1.584-.736 1.584-1.616 0-.88-.688-1.616-1.584-1.616-.896 0-1.584.736-1.584 1.616 0 .88.688 1.616 1.584 1.616zM353.154 19.316v-1.162c-2.17-.182-3.22-1.96-3.22-1.96l1.302-1.036s.672 1.204 1.918 1.414v-2.786c-1.372-.504-2.786-1.288-2.786-2.982 0-1.288 1.05-2.562 2.786-2.744V6.884h.882V8.06c1.708.196 2.66 1.428 2.66 1.428l-1.26 1.05s-.518-.686-1.4-.882V12.4c.042.028.098.042.154.056 1.498.56 2.758 1.218 2.758 2.982 0 1.61-1.302 2.548-2.912 2.702v1.176h-.882zm2.086-3.878c0-.672-.434-1.008-1.204-1.33v2.45c.644-.112 1.204-.476 1.204-1.12zm-3.164-4.634c0 .602.378.924 1.078 1.246V9.656c-.644.14-1.078.602-1.078 1.148zm10.976-2.184l-1.82 2.954s.182-.042.336-.042c2.114 0 3.318 1.652 3.318 3.318 0 1.666-1.33 3.318-3.43 3.318s-3.43-1.652-3.43-3.29c0-.84.294-1.568.546-2.03.154-.28 3.08-5.096 3.08-5.096l1.4.868zm-1.596 4.48c-.966 0-1.736.686-1.736 1.75s.77 1.75 1.736 1.75 1.736-.686 1.736-1.75-.77-1.75-1.736-1.75zm5.306 3.542l1.4.49-1.218 3.262-1.288-.448 1.106-3.304zm6.02-8.61c2.044 0 3.08 1.372 3.08 2.828 0 1.302-1.092 1.932-1.092 1.932s1.372.546 1.372 2.324c0 1.638-1.232 3.052-3.36 3.052s-3.36-1.414-3.36-3.052c0-1.778 1.372-2.324 1.372-2.324s-1.092-.63-1.092-1.932c0-1.456 1.036-2.828 3.08-2.828zm0 8.596c1.106 0 1.666-.742 1.666-1.54s-.56-1.512-1.666-1.512c-1.106 0-1.666.714-1.666 1.512s.56 1.54 1.666 1.54zm1.414-5.754c0-.798-.63-1.302-1.414-1.302-.784 0-1.414.504-1.414 1.302s.63 1.302 1.414 1.302c.784 0 1.414-.504 1.414-1.302zm6.874-2.842c2.492 0 3.668 2.408 3.668 5.068 0 2.66-1.176 5.068-3.668 5.068s-3.696-2.408-3.696-5.068c0-2.66 1.204-5.068 3.696-5.068zm0 8.568c1.358 0 1.988-1.582 1.988-3.5s-.63-3.5-1.988-3.5-2.016 1.582-2.016 3.5.658 3.5 2.016 3.5zm4.452-6.02l2.982-2.38h1.386V18h-1.68v-7.56l-1.722 1.372-.966-1.232zm6.72 6.482a1.1 1.1 0 0 1 1.106-1.106 1.1 1.1 0 0 1 1.106 1.106 1.1 1.1 0 0 1-1.106 1.106 1.1 1.1 0 0 1-1.106-1.106zm8.344-6.09c0-.784-.602-1.372-1.47-1.372-1.274 0-1.666 1.19-1.666 1.19l-1.456-.686s.756-2.072 3.122-2.072c1.792 0 3.164 1.134 3.164 2.94 0 1.4-1.204 2.058-1.204 2.058s1.442.364 1.442 2.24c0 1.778-1.484 2.898-3.388 2.898-2.73 0-3.43-2.268-3.43-2.268l1.372-.798s.434 1.498 2.058 1.498c1.064 0 1.708-.574 1.708-1.33 0-1.036-.896-1.386-1.778-1.386h-.7v-1.54h.532c1.022 0 1.694-.378 1.694-1.372zm2.8-.392l2.982-2.38h1.386V18h-1.68v-7.56l-1.722 1.372-.966-1.232z"/>
                <rect width="123.121" height="14" x="171" y="6" fill="#F0F0F0" fill-rule="nonzero" rx="7"/>
                <rect width="36.828" height="14" x="171" y="6" fill="#68D9C9" fill-rule="nonzero" rx="7"/>
            </g>
        </g>
        <g>
            <g fill-rule="nonzero" transform="translate(52 615)">
                <use fill="#000" filter="url(#i)" xlink:href="#j"/>
                <use fill="#FFF" xlink:href="#j"/>
            </g>
            <g transform="translate(83.118 638)">
                <path fill="#28283D" d="M.64 19V5h1.68v12.4H8.6V19H.64zm12.42 0V6.6H9.04V5h9.72v1.6h-4.02V19h-1.68zM31.74 6.9L30.58 8s-1.3-1.64-3.86-1.64c-3.04 0-5.12 2.66-5.12 5.64 0 2.98 2.08 5.64 5.12 5.64 2.54 0 4.04-1.86 4.04-1.86l1.14 1.16s-1.9 2.3-5.18 2.3c-4.04 0-6.92-3.2-6.92-7.24s2.88-7.24 6.92-7.24c3.28 0 5.02 2.14 5.02 2.14zM92.288 9.248L95.36 6.8h1.2V18h-1.344V8.56l-2.144 1.712-.784-1.024zM99.312 18l3.936-5.216c.416-.544 1.424-1.664 1.424-2.896 0-1.072-.672-2.032-2.064-2.032-1.776 0-2.208 1.712-2.208 1.712l-1.152-.432s.64-2.528 3.36-2.528c2.064 0 3.408 1.424 3.408 3.28 0 1.504-.928 2.56-1.168 2.896l-2.976 3.968h4.224V18h-6.784zm10.704-11.392c1.392 0 2.512 1.088 2.512 2.48s-1.12 2.48-2.512 2.48-2.512-1.088-2.512-2.48 1.12-2.48 2.512-2.48zm0 4.096c.896 0 1.584-.736 1.584-1.616 0-.88-.688-1.616-1.584-1.616-.896 0-1.584.736-1.584 1.616 0 .88.688 1.616 1.584 1.616zm-1.488 7.12l7.376-11.344.688.464-7.344 11.376-.72-.496zm6.832-4.592c1.392 0 2.512 1.088 2.512 2.48s-1.12 2.48-2.512 2.48-2.512-1.088-2.512-2.48 1.12-2.48 2.512-2.48zm0 4.096c.896 0 1.584-.736 1.584-1.616 0-.88-.688-1.616-1.584-1.616-.896 0-1.584.736-1.584 1.616 0 .88.688 1.616 1.584 1.616zM349.326 19.316v-1.162c-2.17-.182-3.22-1.96-3.22-1.96l1.302-1.036s.672 1.204 1.918 1.414v-2.786c-1.372-.504-2.786-1.288-2.786-2.982 0-1.288 1.05-2.562 2.786-2.744V6.884h.882V8.06c1.708.196 2.66 1.428 2.66 1.428l-1.26 1.05s-.518-.686-1.4-.882V12.4a.502.502 0 0 0 .154.056c1.498.56 2.758 1.218 2.758 2.982 0 1.61-1.302 2.548-2.912 2.702v1.176h-.882zm2.086-3.878c0-.672-.434-1.008-1.204-1.33v2.45c.644-.112 1.204-.476 1.204-1.12zm-3.164-4.634c0 .602.378.924 1.078 1.246V9.656c-.644.14-1.078.602-1.078 1.148zm12.992 3.976c0 2.296-1.792 3.388-3.486 3.388-2.59 0-3.43-2.268-3.43-2.268l1.4-.798s.504 1.498 2.03 1.498c1.134 0 1.792-.798 1.792-1.82 0-1.05-.63-1.82-2.086-1.82-1.358 0-2.632 1.064-2.632 1.064V8.2h6.16v1.596h-4.48v1.918s.546-.294 1.386-.294c1.736 0 3.346 1.064 3.346 3.36zm1.988 1.862l1.4.49-1.218 3.262-1.288-.448 1.106-3.304zm1.932-.77l4.984-7.672h1.876v6.104h1.078v1.568h-1.078V18h-1.68v-2.128h-5.18zm2.744-1.568h2.464V10.51l-2.464 3.794zm5.558 1.568l4.984-7.672h1.876v6.104h1.078v1.568h-1.078V18h-1.68v-2.128h-5.18zm2.744-1.568h2.464V10.51l-2.464 3.794zm5.838-3.724l2.982-2.38h1.386V18h-1.68v-7.56l-1.722 1.372-.966-1.232zm6.72 6.482a1.1 1.1 0 0 1 1.106-1.106 1.1 1.1 0 0 1 1.106 1.106 1.1 1.1 0 0 1-1.106 1.106 1.1 1.1 0 0 1-1.106-1.106zm7.196-9.03c2.492 0 3.668 2.408 3.668 5.068 0 2.66-1.176 5.068-3.668 5.068s-3.696-2.408-3.696-5.068c0-2.66 1.204-5.068 3.696-5.068zm0 8.568c1.358 0 1.988-1.582 1.988-3.5s-.63-3.5-1.988-3.5-2.016 1.582-2.016 3.5.658 3.5 2.016 3.5zm11.816-1.82c0 2.296-1.792 3.388-3.486 3.388-2.59 0-3.43-2.268-3.43-2.268l1.4-.798s.504 1.498 2.03 1.498c1.134 0 1.792-.798 1.792-1.82 0-1.05-.63-1.82-2.086-1.82-1.358 0-2.632 1.064-2.632 1.064V8.2h6.16v1.596h-4.48v1.918s.546-.294 1.386-.294c1.736 0 3.346 1.064 3.346 3.36z"/>
                <rect width="123.121" height="14" x="170" y="5" fill="#F0F0F0" fill-rule="nonzero" rx="7"/>
                <rect width="29.462" height="14" x="170" y="5" fill="#AEAEAE" fill-rule="nonzero" rx="7"/>
            </g>
        </g>
        <g>
            <g fill-rule="nonzero" transform="translate(2 10)">
                <use fill="#000" filter="url(#k)" xlink:href="#l"/>
                <use fill="#FFF" xlink:href="#l"/>
            </g>
            <path fill="#28283D" d="M172.4 129.92L186.64 108H192v17.44h3.08v4.48H192V136h-4.8v-6.08h-14.8zm7.84-4.48h7.04V114.6l-7.04 10.84zm37.72 1.36c0 6.56-5.12 9.68-9.96 9.68-7.4 0-9.8-6.48-9.8-6.48l4-2.28s1.44 4.28 5.8 4.28c3.24 0 5.12-2.28 5.12-5.2 0-3-1.8-5.2-5.96-5.2-3.88 0-7.52 3.04-7.52 3.04V108h17.6v4.56h-12.8v5.48s1.56-.84 3.96-.84c4.96 0 9.56 3.04 9.56 9.6zm5.68 5.32l4 1.4-3.48 9.32-3.68-1.28 3.16-9.44zm22.52-10.32c.008.002 4.12 1.045 4.12 6.4 0 5.08-4.24 8.28-9.68 8.28-7.8 0-9.8-6.48-9.8-6.48l3.92-2.28s1.24 4.28 5.88 4.28c3.04 0 4.88-1.64 4.88-3.8 0-2.96-2.56-3.96-5.08-3.96h-2v-4.4h1.52c2.92 0 4.84-1.08 4.84-3.92 0-2.24-1.72-3.92-4.2-3.92-3.64 0-4.76 3.4-4.76 3.4l-4.16-1.96s2.16-5.92 8.92-5.92c5.12 0 9.04 3.24 9.04 8.4 0 3.997-3.434 5.877-3.44 5.88zm5.8 8.12L266.2 108h5.36v17.44h3.08v4.48h-3.08V136h-4.8v-6.08h-14.8zm7.84-4.48h7.04V114.6l-7.04 10.84zM277.44 136l10.28-13.04c1.04-1.36 3.24-3.48 3.24-6.64 0-2.24-1.52-4.32-4.16-4.32-4.12 0-5 4.08-5 4.08l-4.28-1.56s1.8-7 9.28-7c6.04 0 8.96 4.08 8.96 8.72 0 3.48-1.76 5.96-2.44 6.88l-6.44 8.32h9V136h-18.44zm22.68-2.68c0-1.76 1.4-3.16 3.16-3.16 1.76 0 3.16 1.4 3.16 3.16 0 1.76-1.4 3.16-3.16 3.16-1.76 0-3.16-1.4-3.16-3.16zm9.04-18.52l8.52-6.8h3.96v28h-4.8v-21.6l-4.92 3.92-2.76-3.52zm18.72 21.2l10.28-13.04c1.04-1.36 3.24-3.48 3.24-6.64 0-2.24-1.52-4.32-4.16-4.32-4.12 0-5 4.08-5 4.08l-4.28-1.56s1.8-7 9.28-7c6.04 0 8.96 4.08 8.96 8.72 0 3.48-1.76 5.96-2.44 6.88l-6.44 8.32h9V136h-18.44zm45.18-5.38V122h2.4v8.92c0 3.08-2.1 5.32-5.4 5.32-3.3 0-5.4-2.24-5.4-5.32V122h2.4v8.62c0 2 1 3.34 3 3.34 1.98 0 3-1.34 3-3.34zm12.36 1.72c0-1.18-.9-1.6-2.56-2.18-2.06-.72-4.38-1.84-4.38-4.44 0-1.98 1.76-3.96 4.58-3.96 2.92 0 4.56 2.22 4.56 2.22l-1.66 1.64s-1.16-1.58-2.9-1.58c-1.2 0-2.14.74-2.14 1.68 0 1.22 1.1 1.6 3.02 2.32 2.14.8 3.92 1.76 3.92 4.3s-2.24 3.9-4.88 3.9c-3.5 0-5.12-2.86-5.12-2.86l1.8-1.52s1.2 2.1 3.32 2.1c1.2 0 2.44-.48 2.44-1.62zm9.42-10.34c4.08 0 6.92 2.96 6.92 7s-2.84 7-6.92 7h-4.52v-14h4.52zm.04 11.72c2.72 0 4.44-2.18 4.44-4.72 0-2.56-1.72-4.72-4.44-4.72h-2.16v9.44h2.16z"/>
            <path fill="#4A4F54" d="M220.796 76V61.12h-4.824V59.2h11.664v1.92h-4.824V76h-2.016zm13.656-11.376c3.264 0 5.712 2.568 5.712 5.832s-2.448 5.832-5.712 5.832-5.712-2.568-5.712-5.832 2.448-5.832 5.712-5.832zm0 9.792c2.232 0 3.696-1.776 3.696-3.96s-1.464-3.96-3.696-3.96-3.696 1.776-3.696 3.96 1.464 3.96 3.696 3.96zm7.056-7.68v-1.824h2.16v-3.384h2.016v3.384h3.456v1.824h-3.456v5.976c0 1.08.528 1.704 1.608 1.704.624 0 1.272-.456 1.272-.456l.744 1.656c-.96.528-1.656.672-2.304.672-1.584 0-3.336-1.032-3.336-3.48v-6.072h-2.16zm18.168 5.808v-4.176s-1.08-1.872-3.24-1.872c-2.256 0-3.696 1.776-3.696 3.96s1.44 3.96 3.696 3.96c2.16 0 3.24-1.872 3.24-1.872zm.168-7.632h1.848V76h-1.848v-1.608s-1.08 1.896-3.792 1.896c-2.952 0-5.328-2.568-5.328-5.832s2.376-5.832 5.328-5.832c2.712 0 3.792 1.896 3.792 1.896v-1.608zM265.196 76V57.856h2.016V76h-2.016zm12.672 0V59.2h4.416c3.456 0 5.4 1.776 5.4 4.584 0 2.28-1.656 3.24-1.896 3.288.24.048 2.808.792 2.808 4.128 0 2.928-2.16 4.8-5.472 4.8h-5.256zm5.256-1.92c2.4 0 3.456-1.296 3.456-2.88 0-1.584-1.056-2.88-3.456-2.88h-3.24v5.76h3.24zm-3.24-7.632h2.736c1.896 0 3.048-1.032 3.048-2.664 0-1.632-1.152-2.664-3.048-2.664h-2.736v5.328zm19.248 6.096v-4.176s-1.08-1.872-3.24-1.872c-2.256 0-3.696 1.776-3.696 3.96s1.44 3.96 3.696 3.96c2.16 0 3.24-1.872 3.24-1.872zm.168-7.632h1.848V76H299.3v-1.608s-1.08 1.896-3.792 1.896c-2.952 0-5.328-2.568-5.328-5.832s2.376-5.832 5.328-5.832c2.712 0 3.792 1.896 3.792 1.896v-1.608zM304.652 76V57.856h2.016V76h-2.016zm13.704-3.456v-4.176s-1.08-1.872-3.24-1.872c-2.256 0-3.696 1.776-3.696 3.96s1.44 3.96 3.696 3.96c2.16 0 3.24-1.872 3.24-1.872zm.168-7.632h1.848V76h-1.848v-1.608s-1.08 1.896-3.792 1.896c-2.952 0-5.328-2.568-5.328-5.832s2.376-5.832 5.328-5.832c2.712 0 3.792 1.896 3.792 1.896v-1.608zm10.2-.288c2.208 0 4.176 1.512 4.176 4.248V76h-2.016v-6.792c0-1.896-1.176-2.712-2.664-2.712-1.8 0-2.76 1.872-2.76 1.872V76h-2.016V64.912h1.872v1.56s1.008-1.848 3.408-1.848zm15.432 8.208l1.296 1.32s-1.608 2.136-4.536 2.136c-3.264 0-5.712-2.568-5.712-5.832 0-3.24 2.448-5.832 5.712-5.832 2.832 0 4.416 1.992 4.416 1.992l-1.368 1.224s-1.08-1.344-3.048-1.344c-2.232 0-3.696 1.776-3.696 3.96s1.464 3.96 3.696 3.96c2.16 0 3.24-1.584 3.24-1.584zm8.04-8.208c3.096 0 5.4 2.328 5.4 5.904 0 .216 0 .384-.024.648h-8.952c.12 1.68 1.728 3.24 3.816 3.24 2.184 0 3.336-1.632 3.336-1.632l1.272 1.32s-1.68 2.184-4.608 2.184c-3.36 0-5.784-2.544-5.784-5.832 0-3.24 2.208-5.832 5.544-5.832zm-3.528 4.872h6.96c-.072-1.248-1.2-3-3.432-3-2.4 0-3.384 1.848-3.528 3z"/>
            <path stroke="#34E89E" stroke-linejoin="bevel" stroke-width="5" d="M2 216.503l19.498-15.338 12.491 3.043 12.491 2.654h23.154l12.656-2.654 11.644-3.043h11.778l11.449 3.043 8.324 7.86 6.441 4.435 6.72 2.497 14.05-1.542 13.82-8.636c4.888-2.083 8.747-3.237 11.577-3.463 2.83-.227 7.142.275 12.937 1.503h15.091l16.777-3.761 9.157-1.936h9.307l9.467.244 9.179.995 9.301-.513 5.927-1.884 5.892-2.204 6.032-1.03h12.566l3.098.225 9.474-.225h9.08l9.6.225 6.244.52 6.2.285 6.146.845 6.174.535 3.21-.244 2.872-1.136 9.993-6.837 10.033-6.653h9.697l2.786.322h18.65l3.12-.322h6.102l3.277-.438 3.004-.442h3.117l3.26-.226H441.085l2.983.226h3.176l3.001.442h12.568l3.184.438 2.996-.219 3.03-.22 3.126-.441 8.95-3.106 8.52-3.375 6.172-.952H511.235l3.038.546h6.551l2.751.174 6.283-.174 6.296.174 6.2-.174h6.397l9.2.406 6.453.22 7.596.372"/>
        </g>
    </g>
</svg>
